<svg xmlns="http://www.w3.org/2000/svg" width="497" height="22" viewBox="0 0 497 22" fill="none"><path d="M18.8428 17.528V8.45267C18.8424 8.44163 18.8443 8.43064 18.8484 8.42038C18.8524 8.41011 18.8586 8.40078 18.8664 8.39298C18.8742 8.38517 18.8835 8.37905 18.8938 8.375C18.904 8.37095 18.915 8.36906 18.9261 8.36943H20.6686C20.6907 8.36943 20.7119 8.3782 20.7275 8.39381C20.7431 8.40942 20.7519 8.43059 20.7519 8.45267V11.723H20.7787C21.0131 11.4436 21.3086 11.222 21.6425 11.0753C21.9764 10.9286 22.3395 10.8608 22.7038 10.8772C24.0759 10.8772 24.5162 11.774 24.5162 12.9635V17.528C24.5162 17.55 24.5074 17.5712 24.4918 17.5868C24.4762 17.6024 24.4551 17.6112 24.433 17.6112H22.6904C22.6683 17.6112 22.6472 17.6024 22.6316 17.5868C22.616 17.5712 22.6072 17.55 22.6072 17.528V13.1326C22.6072 12.6171 22.0702 12.4587 21.7265 12.4587C21.3828 12.4587 20.7519 12.6842 20.7519 13.3286V17.528C20.7519 17.55 20.7431 17.5712 20.7275 17.5868C20.7119 17.6024 20.6907 17.6112 20.6686 17.6112H18.9261C18.904 17.6112 18.8828 17.6024 18.8672 17.5868C18.8516 17.5712 18.8428 17.55 18.8428 17.528Z" fill="white" fill-opacity="0.35"></path><path d="M32.7559 15.7371V12.6091H31.9504C31.9283 12.6091 31.9072 12.6003 31.8916 12.5847C31.876 12.5691 31.8672 12.5479 31.8672 12.5258V11.4035C31.8674 11.3863 31.8729 11.3696 31.883 11.3556C31.8931 11.3417 31.9073 11.3312 31.9236 11.3257L32.9976 11.0115L33.5695 9.22062C33.5751 9.20894 33.5833 9.19873 33.5936 9.1908C33.6039 9.18288 33.6158 9.17746 33.6285 9.17497H34.5683C34.5793 9.1746 34.5903 9.17649 34.6006 9.18054C34.6108 9.1846 34.6202 9.19071 34.628 9.19852C34.6358 9.20632 34.6419 9.21565 34.646 9.22592C34.65 9.23619 34.6519 9.24718 34.6515 9.25821V11.0249H36.0611C36.0721 11.0249 36.0829 11.0271 36.093 11.0313C36.1031 11.0355 36.1123 11.0416 36.12 11.0493C36.1277 11.057 36.1339 11.0662 36.138 11.0763C36.1422 11.0864 36.1444 11.0972 36.1444 11.1082V12.542C36.1444 12.5528 36.1422 12.5635 36.138 12.5734C36.1338 12.5834 36.1276 12.5924 36.1199 12.5999C36.1121 12.6074 36.1029 12.6133 36.0928 12.6172C36.0827 12.6211 36.072 12.6229 36.0611 12.6225H34.6515V15.5384C34.6515 15.8418 34.8234 16.0271 35.2449 16.0271H36.0504C36.0725 16.0271 36.0937 16.0359 36.1093 16.0515C36.1249 16.0671 36.1336 16.0882 36.1336 16.1103C36.1336 16.1318 36.1336 17.1199 36.1336 17.3696C36.1333 17.3864 36.128 17.4027 36.1185 17.4166C36.1089 17.4304 36.0955 17.4411 36.0799 17.4474C35.6589 17.6413 35.201 17.7421 34.7374 17.7428C33.3332 17.7428 32.7559 16.9104 32.7559 15.7371Z" fill="white" fill-opacity="0.35"></path><path d="M60.044 15.7371V12.6091H59.2385C59.2164 12.6091 59.1953 12.6003 59.1797 12.5847C59.164 12.5691 59.1553 12.5479 59.1553 12.5258V11.4035C59.1555 11.3863 59.161 11.3696 59.1711 11.3556C59.1812 11.3417 59.1954 11.3312 59.2117 11.3256L60.2857 11.0115L60.8576 9.22061C60.8631 9.20432 60.8736 9.19014 60.8875 9.18005C60.9015 9.16995 60.9182 9.16442 60.9354 9.16423H61.8752C61.8862 9.16386 61.8972 9.16575 61.9075 9.1698C61.9177 9.17385 61.9271 9.17997 61.9349 9.18778C61.9427 9.19558 61.9488 9.2049 61.9528 9.21517C61.9569 9.22544 61.9588 9.23643 61.9584 9.24747V11.0142H63.368C63.379 11.0142 63.3898 11.0163 63.3999 11.0205C63.41 11.0247 63.4192 11.0308 63.4269 11.0386C63.4346 11.0463 63.4407 11.0555 63.4449 11.0656C63.4491 11.0757 63.4513 11.0865 63.4513 11.0974V12.5312C63.4513 12.542 63.4491 12.5527 63.4449 12.5627C63.4407 12.5726 63.4345 12.5816 63.4267 12.5891C63.419 12.5967 63.4098 12.6025 63.3997 12.6064C63.3896 12.6103 63.3788 12.6121 63.368 12.6118H61.9584V15.5384C61.9584 15.8418 62.1302 16.0271 62.5518 16.0271H63.3573C63.3794 16.0271 63.4005 16.0358 63.4161 16.0515C63.4318 16.0671 63.4405 16.0882 63.4405 16.1103C63.4405 16.1318 63.4405 17.1199 63.4405 17.3696C63.4402 17.3864 63.4349 17.4027 63.4254 17.4166C63.4158 17.4304 63.4024 17.4411 63.3868 17.4474C62.9658 17.6413 62.5079 17.7421 62.0443 17.7428C60.6213 17.7428 60.044 16.9104 60.044 15.7371Z" fill="white" fill-opacity="0.35"></path><path d="M37.3018 17.5279V11.084C37.3018 11.0619 37.3105 11.0407 37.3261 11.0251C37.3417 11.0095 37.3629 11.0007 37.385 11.0007H38.9584C38.9756 11.0009 38.9924 11.0064 39.0063 11.0165C39.0202 11.0266 39.0307 11.0408 39.0363 11.0571L39.2188 11.7122H39.2457C39.4779 11.4331 39.7715 11.2114 40.1036 11.0647C40.4358 10.918 40.7974 10.8501 41.1601 10.8665C42.0972 10.8665 42.5482 11.288 42.8006 11.9405H42.8543C43.0734 11.5942 43.3805 11.3124 43.7442 11.1237C44.1079 10.935 44.5152 10.8462 44.9245 10.8665C46.2965 10.8665 46.7368 11.7633 46.7368 12.9527V17.5172C46.7368 17.5393 46.7281 17.5605 46.7125 17.5761C46.6968 17.5917 46.6757 17.6004 46.6536 17.6004H44.9057C44.8836 17.6004 44.8624 17.5917 44.8468 17.5761C44.8312 17.5605 44.8224 17.5393 44.8224 17.5172V13.1621C44.8224 12.6466 44.3364 12.4479 43.9928 12.4479C43.5954 12.4479 43.0047 12.7003 42.9778 13.2803V17.5279C42.9782 17.539 42.9763 17.55 42.9723 17.5602C42.9682 17.5705 42.9621 17.5798 42.9543 17.5876C42.9465 17.5954 42.9372 17.6016 42.9269 17.6056C42.9166 17.6097 42.9056 17.6116 42.8946 17.6112H41.1413C41.1197 17.6105 41.0992 17.6014 41.0842 17.5859C41.0691 17.5703 41.0607 17.5496 41.0608 17.5279V13.1621C41.0608 12.6466 40.5452 12.4479 40.1693 12.4479C39.923 12.4464 39.6857 12.5408 39.5077 12.7112C39.3298 12.8816 39.2252 13.1146 39.2162 13.3608V17.5279C39.2162 17.5496 39.2078 17.5703 39.1927 17.5859C39.1777 17.6014 39.1572 17.6105 39.1356 17.6112H37.3877C37.3765 17.6115 37.3654 17.6097 37.355 17.6056C37.3446 17.6016 37.3351 17.5955 37.3271 17.5878C37.3191 17.58 37.3127 17.5707 37.3083 17.5604C37.304 17.5502 37.3018 17.5391 37.3018 17.5279Z" fill="white" fill-opacity="0.35"></path><path d="M47.8893 12.4613V11.2638C47.89 11.2449 47.897 11.2267 47.9092 11.2121C47.9213 11.1976 47.9379 11.1874 47.9564 11.1833C48.7951 11.0011 49.6492 10.8995 50.5072 10.8799C52.1961 10.8799 53.1922 11.288 53.1922 13.1111V17.5306C53.1922 17.5527 53.1834 17.5739 53.1678 17.5895C53.1522 17.6051 53.131 17.6138 53.109 17.6138H51.4416C51.4236 17.6137 51.4061 17.6076 51.392 17.5964C51.3779 17.5852 51.3679 17.5696 51.3637 17.5521L51.1838 16.8996H51.259C50.7837 17.5602 50.1528 17.7454 49.3795 17.7454C48.139 17.7454 47.4785 16.7815 47.4785 15.6457C47.4785 13.93 48.7324 13.5864 49.6695 13.5864H51.2805V13.1514C51.2805 12.6144 50.8777 12.4936 49.3473 12.4936C48.7002 12.4936 48.0048 12.5446 47.9752 12.5446C47.9529 12.5446 47.9315 12.5359 47.9154 12.5204C47.8994 12.5048 47.89 12.4837 47.8893 12.4613ZM51.2778 14.7597H50.2306C49.6748 14.7597 49.3151 14.9718 49.3151 15.5652C49.3151 16.2042 49.7742 16.3492 50.2145 16.3492C50.3576 16.357 50.5007 16.3345 50.6345 16.2833C50.7683 16.232 50.8899 16.1532 50.9912 16.0519C51.0925 15.9506 51.1713 15.829 51.2226 15.6952C51.2738 15.5614 51.2963 15.4183 51.2885 15.2752V14.7382L51.2778 14.7597Z" fill="white" fill-opacity="0.35"></path><path d="M54.3037 17.5279V11.084C54.3037 11.0623 54.3121 11.0416 54.3271 11.026C54.3422 11.0105 54.3627 11.0014 54.3843 11.0007H55.9416C55.9608 11.0005 55.9795 11.0071 55.9943 11.0194C56.009 11.0317 56.0189 11.0489 56.0221 11.0678L56.2074 12.0693H56.2342C56.429 11.6998 56.7228 11.3919 57.0828 11.1799C57.4427 10.9679 57.8545 10.8603 58.2721 10.8692C58.2942 10.8692 58.3154 10.8779 58.331 10.8935C58.3466 10.9091 58.3554 10.9303 58.3554 10.9524V12.746C58.3554 12.768 58.3466 12.7892 58.331 12.8048C58.3154 12.8204 58.2942 12.8292 58.2721 12.8292H57.8264C56.6262 12.8292 56.2154 13.3098 56.2154 13.9032V17.5172C56.2154 17.5388 56.207 17.5596 56.192 17.5751C56.177 17.5907 56.1565 17.5997 56.1349 17.6004H54.3923C54.3711 17.602 54.3501 17.5953 54.3336 17.5818C54.3171 17.5684 54.3064 17.5491 54.3037 17.5279Z" fill="white" fill-opacity="0.35"></path><path d="M25.3271 14.3113C25.3271 12.2116 26.1461 10.8799 28.4686 10.8799C30.7911 10.8799 31.6235 12.2224 31.6235 14.3113C31.6235 16.4002 30.8045 17.7427 28.4686 17.7427C26.1326 17.7427 25.3271 16.4244 25.3271 14.3113ZM27.3892 14.3113C27.3892 15.4471 27.5557 16.1425 28.4632 16.1425C29.3708 16.1425 29.556 15.4471 29.556 14.3113C29.556 13.1756 29.3869 12.4909 28.4632 12.4909C27.5396 12.4909 27.3892 13.1756 27.3892 14.3113Z" fill="white" fill-opacity="0.35"></path><path d="M15.2582 13.6562C15.3495 11.8599 14.7212 8.92254 13.2284 6.51947C13.1881 6.45772 13.121 6.48188 13.1344 6.54632C13.2338 6.91148 13.2579 7.57468 12.678 7.5344C11.6469 7.46459 12.7129 5.25752 10.4494 3.72708C10.441 3.71912 10.43 3.71445 10.4184 3.71392C10.4068 3.71339 10.3955 3.71704 10.3864 3.72419C10.3772 3.73135 10.371 3.74155 10.3688 3.75292C10.3666 3.76429 10.3685 3.77608 10.3742 3.78615C10.53 4.0815 10.6213 5.00245 10.2642 5.31659C9.97686 5.56898 9.45866 5.50186 8.94045 4.6722C8.59582 4.0999 8.41798 3.44268 8.42699 2.77469C8.43601 2.10669 8.63152 1.45451 8.99147 0.891722C9.03443 0.821912 8.97536 0.795062 8.92703 0.811171C5.81243 1.83952 5.18951 5.5126 4.52632 6.84973C4.41624 7.07527 4.31958 7.19072 4.12894 7.17998C3.56241 7.14239 3.97053 5.93146 4.16653 5.50991C4.17081 5.49968 4.17144 5.48829 4.16832 5.47765C4.1652 5.46701 4.15851 5.45777 4.14938 5.45147C4.14026 5.44518 4.12924 5.44221 4.11818 5.44308C4.10713 5.44394 4.09671 5.44858 4.08867 5.45621C2.27077 7.45402 1.10798 9.96042 0.756586 12.6386C0.756586 12.5768 0.729736 12.8587 0.713626 13.0655C0.713626 13.146 0.708256 13.2275 0.697516 13.3098C0.697516 13.4065 0.697516 13.5031 0.697516 13.6025C0.681494 15.5355 1.43401 17.3957 2.78953 18.7739C4.14504 20.1521 5.99252 20.9353 7.92552 20.9513C9.85853 20.9673 11.7187 20.2148 13.0969 18.8593C14.4751 17.5038 15.2583 15.6563 15.2744 13.7233C15.2609 13.6992 15.2582 13.6777 15.2582 13.6562ZM7.94432 17.042C7.2753 17.0382 6.62243 16.836 6.06839 16.461C5.51435 16.086 5.08404 15.555 4.83196 14.9353C4.57988 14.3156 4.51737 13.635 4.65233 12.9797C4.78729 12.3244 5.11366 11.7239 5.59011 11.2543C6.06656 10.7846 6.67167 10.4668 7.32881 10.3413C7.98595 10.2157 8.66558 10.288 9.28163 10.5489C9.89768 10.8098 10.4225 11.2477 10.7895 11.807C11.1565 12.3664 11.3494 13.0221 11.3435 13.6911C11.3357 14.5858 10.9735 15.4409 10.3364 16.069C9.69921 16.6971 8.83902 17.047 7.94432 17.042Z" fill="white" fill-opacity="0.35"></path><path d="M102.258 5.98462C100.845 6.35044 99.7538 7.44935 99.3897 8.87307C99.2869 9.27515 99.2842 9.43481 99.2842 15.0655C99.2842 20.1434 99.2937 20.8546 99.3627 20.9236C99.5027 21.0636 99.6523 21.0794 99.7992 20.9698L99.9364 20.8674L99.9625 15.0291L99.9886 9.19083L100.11 8.85538C100.275 8.39669 100.382 8.19867 100.664 7.82237C101.114 7.22384 101.819 6.7941 102.613 6.63314C102.976 6.55967 103.326 6.55043 105.035 6.56932C106.866 6.58951 107.059 6.60016 107.351 6.697C108.476 7.06986 109.299 7.93408 109.602 9.06038C109.679 9.34835 109.693 9.63961 109.693 10.991C109.693 12.7801 109.67 12.9421 109.315 13.651C109.043 14.1945 108.474 14.766 107.946 15.0269C107.193 15.3987 107.266 15.3908 104.36 15.4125L101.739 15.4322L101.634 15.5666C101.5 15.7359 101.501 15.7954 101.638 15.9694L101.748 16.1095L104.469 16.0928C107.155 16.0762 107.194 16.0745 107.554 15.9546C108.653 15.5894 109.496 14.8715 109.976 13.8911C110.359 13.1104 110.372 13.018 110.372 10.991C110.372 9.40502 110.361 9.15081 110.277 8.8547C109.861 7.39002 108.805 6.35346 107.35 5.98274C106.968 5.88543 106.777 5.87776 104.794 5.88042C102.846 5.88303 102.614 5.89258 102.258 5.98462Z" fill="#F4F4F4" fill-opacity="0.35"></path><path d="M110.693 5.97298C110.566 6.11287 110.582 6.37606 110.723 6.47462C110.815 6.53963 111 6.55591 111.649 6.55617C112.094 6.55633 112.55 6.58158 112.66 6.61226C112.771 6.643 112.964 6.76321 113.091 6.87947C113.153 6.93706 113.205 6.98117 113.249 7.03252C113.487 7.31035 113.476 7.80017 113.476 11.7831C113.476 15.8783 113.478 15.9495 113.581 16.0522C113.715 16.186 113.917 16.1855 114.052 16.051C114.156 15.9466 114.157 15.9014 114.143 11.5768L114.129 7.20808L113.983 6.91119C113.795 6.52899 113.361 6.12858 112.979 5.98561C112.725 5.89075 112.573 5.87755 111.735 5.87755C110.875 5.87755 110.771 5.88715 110.693 5.97298Z" fill="#F4F4F4" fill-opacity="0.35"></path><path d="M113.18 3.44159C112.603 4.01862 112.603 4.03266 113.213 4.64225C113.654 5.08325 113.689 5.1072 113.852 5.07574C113.975 5.05195 114.14 4.92479 114.429 4.63207C114.983 4.06965 114.982 4.01429 114.402 3.4371C113.815 2.85396 113.767 2.85412 113.18 3.44159Z" fill="#F4F4F4" fill-opacity="0.35"></path><path d="M116.219 5.99354C116.108 6.15169 116.117 6.32638 116.242 6.4515C116.338 6.54767 116.417 6.55596 117.246 6.55711C117.299 6.55719 117.35 6.55718 117.399 6.55717C117.891 6.55706 118.21 6.55699 118.504 6.64295C119.05 6.80246 119.51 7.25825 120.822 8.55993C120.893 8.63016 120.966 8.70286 121.042 8.7781C122.181 9.90717 122.977 10.6553 123.109 10.7214C123.433 10.8841 123.791 10.9141 124.153 10.809C124.453 10.7217 124.501 10.6789 126.338 8.85465L126.412 8.78189C127.903 7.30077 128.402 6.80502 128.994 6.63916C129.292 6.55571 129.613 6.55577 130.096 6.55585L130.143 6.55586C130.934 6.55586 131.06 6.51005 131.06 6.22182C131.06 5.90802 130.971 5.87755 130.054 5.87755C129.085 5.87755 128.829 5.92342 128.243 6.2023C127.809 6.40882 127.759 6.45286 125.94 8.2628C124.215 9.97834 124.065 10.1143 123.869 10.1406C123.753 10.1562 123.591 10.1526 123.511 10.1326C123.413 10.1084 122.748 9.48448 121.512 8.25607C119.549 6.30583 119.415 6.19709 118.728 5.98692C118.416 5.89159 118.237 5.87755 117.335 5.87755C116.325 5.87755 116.298 5.88032 116.219 5.99354Z" fill="#F4F4F4" fill-opacity="0.35"></path><path d="M123.428 11.0981C123.319 11.1248 123.155 11.1846 123.062 11.2311C122.97 11.2777 122.061 12.1441 121.042 13.1565C119.792 14.3988 119.114 15.0357 118.955 15.1153C118.531 15.3283 118.248 15.3726 117.306 15.3732C116.482 15.3738 116.402 15.3822 116.275 15.482C116.088 15.6293 116.09 15.8507 116.281 16.0017C116.42 16.1116 116.457 16.1145 117.416 16.0903L117.472 16.0889C118.066 16.074 118.445 16.0645 118.793 15.9544C119.409 15.7592 119.925 15.2479 121.357 13.8299L121.434 13.7541C122.438 12.7593 123.318 11.9067 123.389 11.8595C123.548 11.7537 123.87 11.7484 124.058 11.8484C124.136 11.8896 124.962 12.6898 125.895 13.6266C126.827 14.5635 127.726 15.4233 127.892 15.5373C128.058 15.6515 128.351 15.8068 128.544 15.8826C128.87 16.0104 128.966 16.0219 129.877 16.0412C130.757 16.0599 130.869 16.0526 130.959 15.9708C131.09 15.8524 131.088 15.6107 130.956 15.4782C130.861 15.3834 130.782 15.3738 130.082 15.3732L130.015 15.3732C129.564 15.373 129.263 15.3729 128.983 15.295C128.422 15.1386 127.948 14.6683 126.522 13.253L126.416 13.1479C124.47 11.217 124.37 11.1357 123.86 11.0768C123.731 11.0619 123.536 11.0715 123.428 11.0981Z" fill="#F4F4F4" fill-opacity="0.35"></path><path d="M79.2793 10.3648C78.6287 11.0203 78.0505 11.6491 77.9705 11.7885C77.5288 12.5576 77.512 13.5385 77.9262 14.3757C78.0377 14.6009 78.3461 14.9476 79.2468 15.8604L80.422 17.0513L81.309 17.0344C81.3602 17.0334 81.4091 17.0326 81.4559 17.0319C81.8128 17.026 82.0499 17.0221 82.2694 16.9581C82.7042 16.8313 83.0702 16.4687 84.1609 15.3881C84.2332 15.3165 84.3086 15.2418 84.3875 15.1638C85.8956 13.6714 85.9629 13.6124 86.2285 13.5495C86.5353 13.4769 86.9037 13.5118 87.1522 13.637C87.2387 13.6806 87.9903 14.3931 88.8226 15.2204C88.8713 15.2689 88.9187 15.316 88.9649 15.3619L88.965 15.362C90.0884 16.4792 90.4501 16.8389 90.8797 16.962C91.0837 17.0205 91.3031 17.0257 91.6266 17.0332L91.6282 17.0333C91.6479 17.0337 91.6679 17.0342 91.6884 17.0347L91.7129 17.0353L92.464 17.0537L93.5579 15.9659C94.7235 14.8071 94.9981 14.4576 95.1629 13.9242C95.2922 13.5057 95.3015 12.799 95.1833 12.3962C95.0019 11.7788 94.8253 11.5444 93.6405 10.3484L92.5102 9.20737L91.7099 9.22594C91.0131 9.24212 90.8763 9.25981 90.6514 9.36281C90.4531 9.4537 90.0357 9.83543 88.8513 11.0089C87.8912 11.9602 87.2307 12.5742 87.1007 12.6362C86.8226 12.7689 86.2822 12.771 86.0311 12.6404C85.9306 12.5882 85.1675 11.8694 84.3353 11.0431C83.1899 9.90587 82.7524 9.50494 82.5352 9.39343C82.2615 9.25292 82.2064 9.24478 81.3465 9.21843L80.4448 9.19083L79.2793 10.3648Z" fill="#F4F4F4" fill-opacity="0.35"></path><path d="M86.0832 4.31306C85.7545 4.35673 85.3486 4.50351 85.0269 4.69505C84.9048 4.76779 83.9949 5.63884 83.005 6.63073L81.2052 8.43425L81.4919 8.43467C81.958 8.4353 82.4325 8.53292 82.8221 8.70829C83.1589 8.85992 83.3072 8.99146 84.7266 10.3982C85.5732 11.2371 86.3279 11.947 86.4038 11.9756C86.4796 12.0042 86.597 12.0144 86.6646 11.9981C86.7323 11.9819 87.4568 11.3051 88.2747 10.4941C89.0926 9.68318 89.8791 8.9458 90.0226 8.85554C90.3855 8.62726 90.8753 8.48643 91.3065 8.48643C91.5619 8.48643 91.6662 8.46728 91.6662 8.42037C91.6662 8.38406 90.8621 7.55522 89.8791 6.57856C88.3162 5.02554 88.0463 4.77916 87.7268 4.61454C87.1746 4.32986 86.6629 4.23599 86.0832 4.31306Z" fill="#F4F4F4" fill-opacity="0.35"></path><path fill-rule="evenodd" clip-rule="evenodd" d="M110.763 19.4829L110.763 19.6785L110.482 19.661C110.137 19.6394 109.917 19.7418 109.823 19.9674C109.733 20.1844 109.807 20.4714 109.987 20.6048C110.106 20.6935 110.173 20.7015 110.522 20.6689L110.92 20.6315V19.9594C110.92 19.3967 110.907 19.2872 110.841 19.2872C110.786 19.2872 110.763 19.3437 110.763 19.4829ZM111.911 19.9613V20.6355L112.247 20.6715C112.696 20.7196 112.959 20.6029 113.027 20.3248C113.086 20.0884 113.039 19.896 112.889 19.753C112.786 19.6551 112.73 19.6453 112.42 19.6702L112.068 19.6986V19.4929C112.068 19.3448 112.046 19.2872 111.989 19.2872C111.924 19.2872 111.911 19.3969 111.911 19.9613ZM123.4 19.3388C122.886 19.4604 122.709 20.1695 123.101 20.5373C123.25 20.6773 123.595 20.7255 123.964 20.6579C124.167 20.6206 124.199 20.5976 124.199 20.4858C124.199 20.3717 124.181 20.3598 124.042 20.3821C123.956 20.3961 123.772 20.4076 123.633 20.4078C123.328 20.4081 123.234 20.3087 123.234 19.9846C123.234 19.681 123.357 19.6003 123.819 19.6003C124.157 19.6003 124.173 19.5946 124.173 19.4763C124.173 19.3793 124.137 19.3453 124.01 19.3198C123.809 19.2796 123.626 19.2853 123.4 19.3388ZM130.591 20.6438H130.747H130.904V19.9655V19.2872H130.747H130.591V19.9655V20.6438ZM115.146 19.9916V20.6438H115.688C116.134 20.6438 116.251 20.627 116.347 20.5494C116.498 20.4272 116.501 20.1849 116.354 20.0655C116.258 19.9882 116.254 19.9682 116.321 19.9124C116.402 19.8452 116.424 19.6148 116.358 19.5168C116.273 19.3884 116.069 19.3394 115.619 19.3394H115.146V19.9916ZM127.408 19.522C127.408 19.6176 127.38 19.6524 127.304 19.6524C127.227 19.6524 127.199 19.6872 127.199 19.7829C127.199 19.8785 127.227 19.9133 127.304 19.9133C127.395 19.9133 127.408 19.9481 127.408 20.2003C127.408 20.4177 127.433 20.5126 127.512 20.5916C127.682 20.7614 128.086 20.7207 128.086 20.5339C128.086 20.4564 128.048 20.4351 127.909 20.4351C127.713 20.4351 127.669 20.3725 127.669 20.0948C127.669 19.93 127.68 19.9186 127.864 19.9034C128.02 19.8906 128.06 19.8658 128.06 19.7829C128.06 19.7 128.02 19.6752 127.864 19.6623C127.696 19.6484 127.669 19.6283 127.669 19.5189C127.669 19.4178 127.642 19.3915 127.538 19.3915C127.434 19.3915 127.408 19.4176 127.408 19.522ZM116.059 19.7307C116.059 19.8211 116.019 19.8371 115.759 19.8507C115.467 19.8659 115.459 19.8629 115.459 19.7307C115.459 19.5985 115.467 19.5955 115.759 19.6107C116.019 19.6243 116.059 19.6403 116.059 19.7307ZM101.759 19.7003C101.747 19.7122 101.737 20.0116 101.737 20.3655C101.737 20.9028 101.749 21.0091 101.815 21.0091C101.869 21.0091 101.893 20.9544 101.893 20.8302V20.6514L102.167 20.6769C102.542 20.7118 102.788 20.5852 102.853 20.3248C102.911 20.0881 102.864 19.8952 102.714 19.7554C102.613 19.661 102.544 19.6488 102.19 19.6627C101.965 19.6714 101.771 19.6883 101.759 19.7003ZM103.246 19.805C102.941 20.1093 103.099 20.6109 103.521 20.678C103.791 20.721 104.066 20.6588 104.189 20.5272C104.293 20.4152 104.332 20.0746 104.261 19.8896C104.209 19.7539 103.954 19.6524 103.666 19.6524C103.44 19.6524 103.375 19.6761 103.246 19.805ZM104.49 19.6818C104.438 19.734 104.831 20.6438 104.906 20.6438C104.945 20.6438 105.057 20.4736 105.154 20.2655L105.331 19.8872L105.503 20.2664C105.617 20.5153 105.702 20.6406 105.753 20.6312C105.831 20.6166 106.161 19.9105 106.168 19.7437C106.175 19.5603 106.076 19.6598 105.961 19.9525C105.951 19.9753 105.943 19.9972 105.935 20.0181C105.839 20.2594 105.795 20.3729 105.749 20.373C105.709 20.3732 105.669 20.284 105.592 20.1155L105.591 20.1124L105.59 20.1095C105.583 20.0949 105.576 20.0797 105.569 20.064C105.473 19.8529 105.369 19.6718 105.338 19.6617C105.308 19.6514 105.209 19.8096 105.119 20.013C105.029 20.2165 104.939 20.3829 104.918 20.3829C104.897 20.3829 104.827 20.2428 104.763 20.0715C104.65 19.7692 104.548 19.6235 104.49 19.6818ZM106.6 19.7071C106.441 19.7708 106.312 20.0847 106.357 20.297C106.403 20.5123 106.512 20.63 106.704 20.6723C106.922 20.7202 107.424 20.6511 107.424 20.5731C107.424 20.5278 107.322 20.5157 107.064 20.5303C106.752 20.5479 106.69 20.5361 106.595 20.4407C106.534 20.3802 106.485 20.3073 106.485 20.2786C106.485 20.2475 106.685 20.2264 106.98 20.2264C107.437 20.2264 107.476 20.2184 107.476 20.1245C107.476 19.956 107.368 19.7719 107.233 19.7104C107.082 19.6415 106.767 19.6399 106.6 19.7071ZM107.79 20.1612C107.789 20.4485 107.81 20.6438 107.841 20.6438C107.871 20.6438 107.893 20.4804 107.893 20.2581C107.893 19.8393 107.915 19.809 108.211 19.809C108.31 19.809 108.363 19.7823 108.363 19.7322C108.363 19.6724 108.299 19.6579 108.077 19.6669L107.79 19.6785L107.79 20.1612ZM108.626 19.7987C108.497 19.9276 108.468 20 108.469 20.1832C108.471 20.426 108.532 20.5394 108.712 20.6353C108.91 20.7407 109.511 20.6918 109.511 20.5703C109.511 20.5286 109.401 20.5161 109.155 20.5301C108.872 20.546 108.781 20.5321 108.711 20.4629C108.521 20.2723 108.595 20.2264 109.094 20.2264H109.563V20.0756C109.563 19.8199 109.412 19.6919 109.078 19.6642C108.806 19.6416 108.774 19.6512 108.626 19.7987ZM113.198 19.687C113.179 19.706 113.269 19.9199 113.398 20.1625C113.527 20.405 113.633 20.6323 113.633 20.6677C113.633 20.7743 113.451 20.9047 113.303 20.9047C113.14 20.9047 113.117 20.9873 113.267 21.0349C113.491 21.1061 113.648 20.9521 113.957 20.3568C114.258 19.7769 114.302 19.6524 114.207 19.6524C114.178 19.6524 114.067 19.8285 113.96 20.0438C113.854 20.259 113.754 20.4349 113.739 20.4347C113.724 20.4344 113.618 20.2583 113.503 20.0434C113.297 19.6564 113.266 19.6198 113.198 19.687ZM116.868 19.7568C116.868 19.8447 116.903 19.8613 117.09 19.8619C117.387 19.8628 117.546 19.9102 117.546 19.9977C117.546 20.0515 117.462 20.0699 117.215 20.0699C116.787 20.0699 116.631 20.2165 116.745 20.5131C116.799 20.6545 117.01 20.6996 117.447 20.6632L117.859 20.6288L117.859 20.258C117.858 20.0541 117.841 19.8614 117.819 19.8298C117.739 19.7101 117.542 19.6524 117.211 19.6524C116.903 19.6524 116.868 19.663 116.868 19.7568ZM118.196 19.6987C118.183 19.7116 118.172 19.9294 118.172 20.1829V20.6438H118.329H118.486V20.3102C118.486 19.9449 118.512 19.9133 118.819 19.9133C119.055 19.9133 119.112 19.9955 119.112 20.3412C119.112 20.6292 119.118 20.6438 119.242 20.6438C119.37 20.6438 119.373 20.6351 119.373 20.2525C119.373 19.6984 119.317 19.6502 118.692 19.6645C118.432 19.6705 118.209 19.6859 118.196 19.6987ZM119.868 19.7155C119.693 19.8158 119.637 19.9286 119.635 20.1815C119.633 20.4931 119.749 20.6414 120.025 20.6782C120.296 20.7142 120.594 20.6359 120.616 20.5231C120.63 20.4483 120.585 20.4351 120.314 20.4351C120.023 20.4351 119.992 20.4241 119.946 20.3047C119.837 20.0178 120.064 19.8268 120.429 19.8977C120.556 19.9223 120.573 19.9099 120.573 19.789C120.573 19.6573 120.562 19.6525 120.273 19.654C120.108 19.6549 119.926 19.6825 119.868 19.7155ZM121.009 19.7014C120.855 19.7672 120.729 19.9604 120.729 20.1302C120.729 20.5364 121.006 20.7303 121.511 20.6785C121.878 20.641 122.034 20.4847 122.034 20.1543C122.034 19.8245 121.868 19.6878 121.445 19.6683C121.266 19.6602 121.07 19.675 121.009 19.7014ZM124.534 19.805C124.412 19.9272 124.382 20.003 124.382 20.1865C124.382 20.5917 124.634 20.7375 125.219 20.6696C125.474 20.64 125.529 20.6162 125.529 20.5365C125.529 20.4516 125.479 20.4376 125.126 20.4242C124.79 20.4116 124.719 20.3937 124.704 20.3177C124.689 20.2365 124.736 20.2264 125.134 20.2264C125.58 20.2264 125.582 20.226 125.582 20.0919C125.582 20.0129 125.519 19.8946 125.429 19.805C125.297 19.6724 125.238 19.6524 124.982 19.6524C124.725 19.6524 124.667 19.6724 124.534 19.805ZM125.843 20.1609V20.6438H125.997C126.151 20.6438 126.151 20.6434 126.166 20.2916L126.182 19.9394H126.443H126.703L126.719 20.2916C126.734 20.6434 126.734 20.6438 126.889 20.6438H127.043V20.2762C127.043 19.9569 127.026 19.892 126.916 19.7823C126.799 19.6653 126.755 19.6569 126.316 19.6669L125.843 19.6778V20.1609ZM128.319 19.6978C128.306 19.7111 128.295 19.9294 128.295 20.1829V20.6438H128.449C128.603 20.6438 128.603 20.6434 128.619 20.2916L128.634 19.9394L128.843 19.9133C129.008 19.8927 129.051 19.8655 129.051 19.7829C129.051 19.689 129.016 19.6783 128.697 19.6761C128.503 19.6748 128.332 19.6846 128.319 19.6978ZM129.286 19.7568C129.286 19.8447 129.321 19.8613 129.508 19.8619C129.805 19.8628 129.965 19.9102 129.965 19.9977C129.965 20.0515 129.881 20.0699 129.634 20.0699C129.205 20.0699 129.049 20.2165 129.163 20.5131C129.217 20.6545 129.429 20.6996 129.866 20.6632L130.278 20.6288L130.277 20.258C130.276 20.0541 130.259 19.8614 130.238 19.8298C130.158 19.7101 129.96 19.6524 129.629 19.6524C129.321 19.6524 129.286 19.663 129.286 19.7568ZM107.276 19.9254C107.357 20.0539 107.315 20.0699 106.896 20.0699H106.472L106.55 19.9525C106.677 19.7598 107.159 19.7418 107.276 19.9254ZM109.341 19.8746C109.377 19.9029 109.407 19.9585 109.407 19.998C109.407 20.0526 109.313 20.0699 109.015 20.0699C108.8 20.0699 108.624 20.0523 108.625 20.0307C108.629 19.8148 109.128 19.706 109.341 19.8746ZM102.632 19.8953C102.763 20.0133 102.757 20.3019 102.621 20.4376C102.534 20.5251 102.46 20.5417 102.217 20.5289L101.919 20.5134L101.903 20.2052C101.892 19.9939 101.909 19.8833 101.955 19.8537C102.079 19.7753 102.53 19.803 102.632 19.8953ZM104.016 19.85C104.131 19.9228 104.19 20.1633 104.132 20.3167C104.061 20.5048 103.999 20.5377 103.718 20.5387C103.397 20.5397 103.25 20.4294 103.25 20.1884C103.25 19.9114 103.369 19.8088 103.688 19.8098C103.834 19.8102 103.982 19.8283 104.016 19.85ZM110.763 20.142C110.763 20.5163 110.739 20.5374 110.31 20.5387C110.06 20.5396 109.928 20.4095 109.928 20.1626C109.928 19.9188 110.09 19.809 110.45 19.809H110.763V20.142ZM112.807 19.8953C112.937 20.0133 112.931 20.3019 112.796 20.4376C112.708 20.5251 112.635 20.5417 112.391 20.5289L112.094 20.5134L112.078 20.2052C112.067 19.9939 112.083 19.8833 112.13 19.8537C112.254 19.7753 112.705 19.803 112.807 19.8953ZM121.605 19.9424C121.732 20.0319 121.762 20.2687 121.658 20.3725C121.623 20.4069 121.499 20.4351 121.381 20.4351C121.131 20.4351 121.042 20.3647 121.042 20.1667C121.042 20.0085 121.206 19.8611 121.381 19.8611C121.44 19.8611 121.541 19.8977 121.605 19.9424ZM125.186 19.8928C125.356 19.9581 125.259 20.0177 124.982 20.0177C124.716 20.0177 124.606 19.9576 124.76 19.8957C124.854 19.8576 125.09 19.856 125.186 19.8928ZM116.129 20.2462C116.155 20.3837 116.051 20.4334 115.733 20.4343C115.462 20.4351 115.459 20.4332 115.459 20.2761V20.1171L115.785 20.1326C116.055 20.1455 116.114 20.1648 116.129 20.2462ZM117.483 20.2598C117.64 20.3017 117.605 20.3923 117.412 20.446C117.22 20.4996 117.025 20.4561 117.025 20.3596C117.025 20.2517 117.261 20.2003 117.483 20.2598ZM129.901 20.2598C130.058 20.3017 130.023 20.3923 129.831 20.446C129.639 20.4995 129.443 20.4561 129.443 20.3602C129.443 20.2412 129.657 20.1944 129.901 20.2598Z" fill="#F4F4F4" fill-opacity="0.35"></path><path d="M86.3963 14.2627C86.3532 14.2784 85.6254 14.9758 84.7788 15.8125C83.7178 16.8611 83.1573 17.3774 82.9747 17.474C82.5958 17.6744 82.1606 17.774 81.6633 17.774C81.4253 17.774 81.2307 17.7924 81.2307 17.8148C81.2307 17.8373 82.0584 18.6792 83.07 19.6857C84.5789 21.1872 84.962 21.5412 85.203 21.6569C86.056 22.0663 87.0228 22.0482 87.7902 21.6086C88.0233 21.475 91.6662 17.9088 91.6662 17.8142C91.6662 17.7921 91.5303 17.774 91.3641 17.774C91.198 17.774 90.9276 17.739 90.7632 17.6962C90.1344 17.5324 90.0012 17.4276 88.4051 15.8411C87.5729 15.0139 86.8259 14.3121 86.7451 14.2815C86.5871 14.2217 86.5189 14.2181 86.3963 14.2627Z" fill="#F4F4F4" fill-opacity="0.35"></path><path d="M155.722 3.00037C160.827 3.00055 164.988 7.03363 165.196 12.0873C165.147 12.1455 165.102 12.2095 165.064 12.2806C164.971 12.4545 164.924 12.6584 164.924 12.8929C164.924 13.1303 164.971 13.3374 165.064 13.514C165.086 13.5543 165.11 13.5922 165.135 13.6283C164.57 18.3275 160.573 21.9699 155.722 21.9701C150.483 21.9701 146.237 17.724 146.236 12.4857C146.236 7.24729 150.483 3.00037 155.722 3.00037ZM155.42 11.726C155.219 11.726 155.036 11.7741 154.87 11.8705C154.707 11.9671 154.578 12.104 154.484 12.2806C154.391 12.4544 154.344 12.6574 154.344 12.889C154.344 13.1179 154.391 13.3221 154.484 13.5013C154.578 13.6807 154.707 13.82 154.87 13.9193C155.033 14.0186 155.215 14.0687 155.416 14.0687C155.612 14.0687 155.783 14.0254 155.93 13.9398C156.079 13.8515 156.19 13.7411 156.265 13.6088V14.0316H156.646V11.7631H156.265V12.1771C156.193 12.0474 156.084 11.9394 155.938 11.8539C155.791 11.7684 155.619 11.726 155.42 11.726ZM158.036 11.726C157.873 11.726 157.728 11.7549 157.601 11.8129C157.474 11.868 157.376 11.9439 157.307 12.0404C157.238 12.1368 157.203 12.2431 157.203 12.3588C157.203 12.505 157.241 12.6241 157.315 12.7152C157.393 12.8034 157.484 12.8705 157.589 12.9174C157.696 12.9615 157.835 13.006 158.003 13.0502C158.187 13.097 158.324 13.1451 158.412 13.1947C158.5 13.2416 158.545 13.3152 158.545 13.4144C158.545 13.511 158.504 13.5912 158.421 13.6547C158.338 13.7181 158.225 13.7504 158.081 13.7504C157.927 13.7503 157.801 13.7137 157.704 13.642C157.611 13.5703 157.558 13.4776 157.547 13.3646H157.158C157.166 13.5026 157.211 13.6261 157.291 13.7338C157.371 13.8383 157.48 13.9212 157.617 13.9818C157.755 14.0397 157.911 14.0687 158.085 14.0687C158.248 14.0687 158.391 14.0409 158.516 13.9857C158.642 13.9278 158.741 13.8495 158.81 13.7504C158.879 13.651 158.913 13.5386 158.913 13.4144C158.91 13.2765 158.871 13.165 158.797 13.0795C158.725 12.994 158.638 12.9304 158.536 12.889C158.434 12.8449 158.301 12.8003 158.139 12.7562C158.009 12.7204 157.907 12.689 157.833 12.6615C157.761 12.6311 157.7 12.5922 157.65 12.5453C157.604 12.4956 157.58 12.4332 157.58 12.3588C157.58 12.2651 157.62 12.1891 157.7 12.1312C157.78 12.0733 157.888 12.0443 158.023 12.0443C158.17 12.0443 158.286 12.08 158.371 12.1517C158.459 12.2235 158.507 12.3192 158.516 12.4379H158.893C158.882 12.2173 158.799 12.0433 158.645 11.9164C158.49 11.7895 158.287 11.726 158.036 11.726ZM161.934 11.726C161.713 11.726 161.517 11.7739 161.346 11.8705C161.178 11.9642 161.047 12.0995 160.953 12.2758C160.859 12.4524 160.813 12.6584 160.812 12.8929C160.812 13.1275 160.86 13.3347 160.957 13.514C161.054 13.6906 161.186 13.8276 161.354 13.9242C161.525 14.0206 161.719 14.0687 161.934 14.0687C162.204 14.0687 162.431 14.0008 162.613 13.8656C162.795 13.7277 162.917 13.5493 162.978 13.3314H162.571C162.527 13.4583 162.45 13.5608 162.34 13.6381C162.232 13.7126 162.096 13.7504 161.934 13.7504C161.735 13.7503 161.565 13.6879 161.425 13.5638C161.287 13.4369 161.211 13.261 161.197 13.0375H163.011C163.019 12.9576 163.022 12.8816 163.022 12.8099C163.022 12.6031 162.977 12.418 162.886 12.2552C162.797 12.0898 162.67 11.9603 162.505 11.8666C162.339 11.7728 162.149 11.726 161.934 11.726ZM152.948 11.7211C152.769 11.7211 152.605 11.7656 152.459 11.8539C152.313 11.9422 152.208 12.067 152.145 12.2269C152.073 12.0613 151.964 11.9355 151.817 11.85C151.671 11.7645 151.503 11.7211 151.312 11.7211C151.161 11.7211 151.021 11.7533 150.895 11.8168C150.77 11.8802 150.671 11.9716 150.597 12.0902V11.7631H150.22V14.0316H150.597V12.7816C150.597 12.5443 150.655 12.3628 150.771 12.2386C150.886 12.1118 151.042 12.0482 151.238 12.0482C151.429 12.0482 151.579 12.1094 151.689 12.2308C151.803 12.3495 151.859 12.5222 151.859 12.7484V14.0316H152.231V12.7816C152.231 12.5443 152.289 12.3628 152.405 12.2386C152.521 12.1118 152.677 12.0483 152.873 12.0482C153.063 12.0482 153.214 12.1095 153.324 12.2308C153.437 12.3495 153.494 12.5221 153.494 12.7484V14.0316H153.867V12.6947C153.867 12.4851 153.827 12.3067 153.747 12.1605C153.667 12.0143 153.558 11.9051 153.42 11.8334C153.282 11.7589 153.125 11.7211 152.948 11.7211ZM159.527 11.1918V11.7631H159.234V12.0736H159.527V13.4105C159.527 13.6313 159.581 13.7895 159.686 13.8861C159.79 13.9827 159.948 14.0316 160.157 14.0316H160.496V13.7123H160.219C160.103 13.7122 160.021 13.6909 159.975 13.6469C159.928 13.5999 159.904 13.5209 159.904 13.4105V12.0736H160.496V11.7631H159.904V11.1918H159.527ZM164.629 11.7211C164.452 11.7211 164.302 11.7578 164.178 11.8295C164.057 11.9012 163.963 12.0017 163.896 12.1312V11.7631H163.52V14.0316H163.896V12.7982C163.896 12.3401 164.108 12.1107 164.53 12.1107H164.629V11.7211ZM155.495 12.0531C155.636 12.0531 155.764 12.0877 155.88 12.1566C155.998 12.2228 156.092 12.3189 156.161 12.4457C156.23 12.5726 156.265 12.7219 156.265 12.8929C156.265 13.064 156.23 13.2144 156.161 13.3441C156.092 13.471 155.999 13.5691 155.88 13.6381C155.764 13.7043 155.636 13.7376 155.495 13.7377C155.355 13.7377 155.226 13.7042 155.11 13.6381C154.994 13.5691 154.902 13.471 154.833 13.3441C154.764 13.2145 154.73 13.0628 154.729 12.889C154.729 12.7179 154.764 12.5687 154.833 12.4418C154.902 12.3149 154.995 12.2179 155.11 12.1517C155.226 12.0857 155.355 12.0531 155.495 12.0531ZM161.917 12.0443C162.049 12.0443 162.17 12.0722 162.277 12.1273C162.388 12.1797 162.475 12.258 162.538 12.3627C162.602 12.4648 162.634 12.5883 162.634 12.7318H161.201C161.22 12.5167 161.296 12.3483 161.429 12.2269C161.564 12.1056 161.727 12.0444 161.917 12.0443Z" fill="#F4F4F4" fill-opacity="0.35"></path><path d="M168.812 3.00464C174.05 3.00476 178.296 7.25164 178.296 12.49C178.296 17.7282 174.05 21.9742 168.812 21.9744C163.573 21.9744 159.326 17.7283 159.326 12.49C159.326 12.3517 159.331 12.2138 159.337 12.0769H159.527V13.4138C159.527 13.6346 159.581 13.7938 159.686 13.8904C159.79 13.9867 159.948 14.0349 160.157 14.0349H160.496V13.7166H160.219C160.103 13.7165 160.021 13.6943 159.975 13.6501C159.928 13.6032 159.904 13.5242 159.904 13.4138V12.0769H160.496V11.7664H159.904V11.1951H159.527V11.7664H159.356C159.726 6.86598 163.817 3.00464 168.812 3.00464ZM161.934 11.7292C161.713 11.7293 161.517 11.7772 161.346 11.8738C161.177 11.9676 161.047 12.1035 160.953 12.28C160.859 12.4565 160.813 12.6618 160.813 12.8962C160.813 13.1307 160.861 13.338 160.957 13.5173C161.054 13.694 161.186 13.8309 161.354 13.9275C161.525 14.024 161.719 14.072 161.934 14.072C162.204 14.072 162.431 14.0051 162.613 13.8699C162.795 13.7319 162.917 13.5536 162.978 13.3357H162.571C162.527 13.4624 162.45 13.5642 162.34 13.6414C162.232 13.7159 162.096 13.7537 161.934 13.7537C161.735 13.7536 161.565 13.6913 161.425 13.5671C161.287 13.4402 161.211 13.2652 161.197 13.0417H163.01C163.018 12.9619 163.022 12.8859 163.022 12.8142C163.022 12.6073 162.977 12.4223 162.886 12.2595C162.797 12.0939 162.67 11.9637 162.505 11.8699C162.339 11.7762 162.149 11.7292 161.934 11.7292ZM166.028 11.7292C165.813 11.7293 165.621 11.7773 165.453 11.8738C165.288 11.9703 165.158 12.1074 165.064 12.2839C164.971 12.4577 164.924 12.6618 164.924 12.8962C164.924 13.1336 164.971 13.3407 165.064 13.5173C165.158 13.6939 165.288 13.8309 165.453 13.9275C165.621 14.024 165.813 14.072 166.028 14.072C166.302 14.072 166.53 14.003 166.712 13.865C166.894 13.7243 167.015 13.5381 167.076 13.3064H166.67C166.629 13.4499 166.553 13.5602 166.442 13.6375C166.332 13.7147 166.194 13.7537 166.028 13.7537C165.813 13.7536 165.639 13.679 165.507 13.53C165.374 13.381 165.309 13.1694 165.309 12.8962C165.309 12.626 165.374 12.4174 165.507 12.2712C165.639 12.1223 165.813 12.0477 166.028 12.0476C166.194 12.0476 166.332 12.0878 166.442 12.1677C166.555 12.2477 166.631 12.357 166.67 12.4949H167.076C167.018 12.2549 166.898 12.0676 166.716 11.9324C166.536 11.7971 166.307 11.7292 166.028 11.7292ZM168.514 11.7292C168.313 11.7293 168.129 11.7774 167.964 11.8738C167.801 11.9704 167.672 12.1073 167.578 12.2839C167.484 12.4577 167.438 12.6607 167.438 12.8923C167.438 13.1214 167.484 13.3262 167.578 13.5056C167.672 13.6849 167.801 13.8243 167.964 13.9236C168.127 14.0227 168.309 14.072 168.51 14.072C168.706 14.072 168.877 14.0296 169.023 13.9441C169.172 13.8558 169.284 13.7454 169.358 13.613V14.0349H169.739V11.7664H169.358V12.1804C169.287 12.0508 169.177 11.9427 169.031 11.8572C168.885 11.7718 168.712 11.7292 168.514 11.7292ZM173.7 10.9714V12.1726C173.62 12.0401 173.504 11.9333 173.353 11.8533C173.201 11.7706 173.037 11.7293 172.86 11.7292C172.656 11.7292 172.471 11.7774 172.306 11.8738C172.143 11.9704 172.014 12.1073 171.92 12.2839C171.826 12.4577 171.779 12.6606 171.779 12.8923C171.779 13.1214 171.826 13.3262 171.92 13.5056C172.014 13.6849 172.143 13.8243 172.306 13.9236C172.471 14.0227 172.654 14.072 172.855 14.072C173.051 14.072 173.223 14.0296 173.369 13.9441C173.515 13.8559 173.626 13.7442 173.7 13.6091V14.0349H174.081V10.9714H173.7ZM164.629 11.7253C164.452 11.7254 164.302 11.7611 164.178 11.8328C164.057 11.9044 163.963 12.0051 163.896 12.1345V11.7664H163.52V14.0349H163.896V12.8015C163.896 12.3434 164.108 12.114 164.53 12.114H164.629V11.7253ZM171.485 11.7253C171.309 11.7254 171.158 11.761 171.034 11.8328C170.913 11.9044 170.819 12.005 170.753 12.1345V11.7664H170.376V14.0349H170.753V12.8015C170.753 12.3435 170.964 12.1141 171.386 12.114H171.485V11.7253ZM168.589 12.0564C168.73 12.0564 168.858 12.091 168.974 12.1599C169.092 12.2261 169.186 12.323 169.255 12.45C169.324 12.5768 169.358 12.7254 169.358 12.8962C169.358 13.0672 169.324 13.2178 169.255 13.3474C169.186 13.4743 169.092 13.5724 168.974 13.6414C168.858 13.7076 168.73 13.7409 168.589 13.741C168.448 13.741 168.32 13.7075 168.204 13.6414C168.088 13.5724 167.996 13.4744 167.927 13.3474C167.858 13.2177 167.823 13.0661 167.823 12.8923C167.823 12.7213 167.858 12.572 167.927 12.4451C167.996 12.3183 168.088 12.2222 168.204 12.156C168.32 12.0898 168.448 12.0564 168.589 12.0564ZM172.931 12.0564C173.071 12.0564 173.2 12.091 173.315 12.1599C173.434 12.2261 173.528 12.323 173.597 12.45C173.666 12.5767 173.7 12.7254 173.7 12.8962C173.7 13.0672 173.666 13.2178 173.597 13.3474C173.528 13.4743 173.434 13.5724 173.315 13.6414C173.2 13.7075 173.071 13.7409 172.931 13.741C172.79 13.741 172.661 13.7076 172.545 13.6414C172.429 13.5724 172.336 13.4742 172.268 13.3474C172.199 13.2178 172.164 13.066 172.164 12.8923C172.164 12.7213 172.199 12.572 172.268 12.4451C172.336 12.3183 172.429 12.2222 172.545 12.156C172.661 12.0898 172.79 12.0564 172.931 12.0564ZM161.917 12.0476C162.049 12.0476 162.17 12.0755 162.277 12.1306C162.388 12.183 162.475 12.2621 162.538 12.3669C162.602 12.469 162.634 12.5917 162.634 12.7351H161.201C161.22 12.52 161.296 12.3516 161.429 12.2302C161.564 12.1089 161.727 12.0477 161.917 12.0476Z" fill="#F4F4F4" fill-opacity="0.35"></path><path fill-rule="evenodd" clip-rule="evenodd" d="M231.106 3.00246C228.961 3.09322 227.114 3.70981 225.767 4.78421C225.514 4.98554 225.033 5.46283 224.847 5.69704C224.207 6.50243 223.839 7.40425 223.705 8.49432C223.678 8.71531 223.678 9.4929 223.706 9.68762C223.89 10.997 224.591 12.0105 225.966 12.9558C226.424 13.2706 226.785 13.4836 227.825 14.0505C228.212 14.2617 228.623 14.4903 228.738 14.5586C229.642 15.0957 230.071 15.521 230.21 16.0183C230.257 16.1863 230.257 16.4443 230.21 16.6227C230.06 17.1867 229.54 17.6557 228.777 17.9149C228.36 18.0565 227.916 18.1268 227.361 18.1394C226.025 18.1695 224.469 17.8311 223.139 17.2208C222.941 17.1303 222.653 16.9824 222.613 16.9513C222.602 16.9429 222.589 16.9399 222.585 16.9447C222.567 16.9625 221.726 20.944 221.738 20.9548C221.761 20.9759 222.113 21.1085 222.412 21.209C223.411 21.5444 224.561 21.7899 225.643 21.8983C226.574 21.9916 227.552 21.9944 228.413 21.9062C231.062 21.6345 233.178 20.5266 234.287 18.8311C234.916 17.8681 235.217 16.7672 235.187 15.5379C235.175 15.0467 235.118 14.6864 234.989 14.2809C234.618 13.1191 233.791 12.1836 232.344 11.2882C232.014 11.0838 231.621 10.863 230.943 10.5009C230.177 10.0914 229.889 9.92641 229.589 9.72644C229.297 9.53111 229.138 9.40469 228.984 9.24283C228.715 8.96008 228.598 8.70547 228.598 8.40134C228.598 7.72763 229.257 7.15065 230.286 6.9236C230.845 6.80007 231.605 6.78263 232.375 6.8757C233.257 6.98232 234.27 7.25893 235.038 7.60237C235.143 7.64931 235.23 7.68588 235.233 7.68364C235.235 7.68139 235.422 6.82203 235.648 5.77396C235.874 4.72587 236.063 3.85611 236.067 3.84114C236.078 3.8082 236.032 3.78696 235.71 3.67565C234.779 3.35362 233.628 3.11948 232.584 3.03981C232.465 3.03073 232.325 3.01985 232.274 3.01565C232.157 3.00601 231.261 2.99589 231.106 3.00246ZM193.568 3.30657C193.558 3.33752 193.468 3.86641 193.473 3.87097C193.475 3.87325 193.581 3.89671 193.708 3.92313C194.7 4.12898 195.724 4.42607 196.623 4.76862C197.413 5.06974 197.698 5.19008 197.971 5.33732C198.462 5.602 198.786 5.91504 198.967 6.29743C199.115 6.6108 199.106 6.57807 199.946 9.8271C200.29 11.161 200.6 12.357 200.633 12.4849C200.693 12.7153 202.053 17.97 202.195 18.5211C202.236 18.6788 202.435 19.4512 202.639 20.2374L203.009 21.667L205.5 21.6671L207.992 21.6671L211.823 12.4907C213.929 7.44375 215.655 3.30827 215.658 3.30079C215.661 3.29302 214.597 3.2872 213.18 3.2872H210.696L210.67 3.35306C210.655 3.38928 209.55 6.19102 208.214 9.57914C206.877 12.9673 205.778 15.7498 205.77 15.7626C205.761 15.779 205.757 15.7799 205.756 15.7658C205.755 15.726 203.743 5.13498 203.705 4.97063C203.562 4.34861 203.178 3.84521 202.629 3.55931C202.357 3.41816 202.078 3.33699 201.75 3.30351C201.499 3.27799 193.577 3.28095 193.568 3.30657ZM217.652 3.32981C217.648 3.35325 216.776 7.46607 215.715 12.4694C214.654 17.4727 213.782 21.589 213.777 21.6167L213.768 21.6671H216.135H218.502L220.435 12.5198C221.498 7.48873 222.371 3.35325 222.374 3.32981L222.381 3.2872H220.021H217.661L217.652 3.32981ZM243.781 3.30499C242.998 3.38633 242.424 3.8421 242.016 4.70521C241.965 4.81152 235.084 21.3449 234.964 21.6477C234.958 21.6632 235.459 21.6671 237.44 21.6671H239.923L240.112 21.1208C240.216 20.8204 240.431 20.1963 240.59 19.734L240.879 18.8935L243.909 18.8933C245.575 18.8932 246.938 18.8948 246.939 18.897C246.939 18.8991 247.07 19.5215 247.229 20.2801L247.519 21.6594L249.713 21.6633C251.799 21.667 251.908 21.6659 251.9 21.64C251.891 21.6107 248.083 3.30775 248.083 3.29493C248.083 3.28114 243.917 3.29088 243.781 3.30499ZM245.468 11.6931C245.868 13.5675 246.195 15.1139 246.195 15.1296C246.195 15.1572 246.129 15.1582 244.228 15.1582C242.661 15.1582 242.262 15.1543 242.267 15.1388C242.362 14.8594 244.733 8.2627 244.736 8.27186C244.738 8.27914 245.068 9.8187 245.468 11.6931Z" fill="#F4F4F4" fill-opacity="0.35"></path><path fill-rule="evenodd" clip-rule="evenodd" d="M270.354 3.09584C270.235 3.14447 270.059 3.27485 269.961 3.3856C269.672 3.71462 267.076 9.96194 267.076 10.3305C267.076 10.5587 267.177 10.7686 267.39 10.9823C267.697 11.2903 267.73 11.2975 268.814 11.2959C269.475 11.2949 270.032 11.2405 270.193 11.1611C270.348 11.0839 270.571 10.79 270.723 10.4618L270.986 9.89562H271.81H272.635L272.819 10.3797C273.148 11.2441 273.293 11.2975 275.304 11.2975C276.268 11.2975 277.18 11.2502 277.331 11.1924C277.483 11.1346 277.699 10.9355 277.811 10.7501C278.002 10.4358 278.021 10.4281 278.086 10.6368C278.244 11.1364 278.639 11.2975 279.703 11.2975C280.767 11.2975 281.161 11.1364 281.319 10.6368C281.385 10.4272 281.402 10.4336 281.588 10.7405C281.697 10.9207 281.877 11.1167 281.988 11.1762C282.114 11.2441 284.175 11.2849 287.541 11.2861L292.893 11.288L293.202 10.9776C293.488 10.6901 293.511 10.6065 293.511 9.85V9.03291H293.941H294.371V9.85C294.371 10.6065 294.394 10.6901 294.68 10.9776L294.99 11.2881H297.333H299.676L300.005 10.9338L300.335 10.5794L301.033 10.91C301.699 11.2248 301.809 11.2423 303.349 11.2801C304.951 11.3192 304.97 11.3169 305.291 11.0458C305.469 10.8952 305.68 10.5748 305.759 10.3338L305.904 9.89562H306.743H307.582L307.816 10.4401C308.161 11.2446 308.322 11.2975 310.425 11.2975C312.143 11.2975 312.207 11.2895 312.498 11.0376C312.753 10.8174 312.808 10.6736 312.854 10.0942L312.908 9.41056L313.414 10.2269C313.703 10.6932 314.039 11.0978 314.198 11.1704C314.567 11.3393 316.839 11.338 317.209 11.1687C317.771 10.9118 317.797 10.7302 317.797 7.09882V3.75225L317.484 3.40005L317.17 3.04785H315.982C314.845 3.04785 314.781 3.06014 314.514 3.32791C314.337 3.50563 314.213 3.77544 314.174 4.06563L314.113 4.52308L313.807 3.9923C313.28 3.07513 313.231 3.05259 311.688 3.01302C310.909 2.99318 310.203 3.0265 310.033 3.09131C309.656 3.2356 309.31 3.80294 309.304 4.288C309.299 4.66511 309.299 4.66489 309.053 4.09389C308.613 3.06996 308.561 3.04569 306.86 3.06187C306.049 3.06953 305.289 3.08052 305.171 3.08613C305.052 3.09174 304.483 3.06866 303.905 3.03469C302.618 2.95899 301.598 3.12183 300.863 3.52051L300.316 3.81696L300.142 3.51231C299.895 3.08117 299.51 2.97161 298.382 3.01226C297.534 3.04289 297.361 3.08193 297.138 3.29243L296.878 3.5369L296.35 3.29243C295.822 3.04817 295.813 3.04785 290.341 3.05098C287.327 3.05281 284.764 3.06155 284.646 3.0705C284.528 3.07945 283.73 3.06413 282.873 3.03642C280.873 2.97182 280.835 2.99166 280.251 4.40619C280.02 4.96393 279.798 5.45913 279.757 5.50647C279.715 5.55392 279.472 5.12968 279.216 4.56385C278.533 3.05152 278.539 3.0554 276.766 3.01151C274.78 2.96244 274.389 3.17639 274.38 4.32002L274.376 4.77327L274.022 4.01721C273.775 3.48869 273.58 3.22104 273.376 3.12754C273.046 2.97689 270.703 2.95231 270.354 3.09584ZM274.156 7.03789L275.404 9.94954L275.433 7.00737L275.461 4.06531L276.647 4.09572L277.832 4.12624L278.756 6.14822C279.265 7.26036 279.714 8.1702 279.755 8.1702C279.796 8.1702 280.213 7.26036 280.681 6.14822L281.532 4.12624L282.74 4.09572L283.947 4.0652V7.14217V10.2191H283.249H282.55V7.84668C282.55 6.54183 282.514 5.4752 282.47 5.47627C282.426 5.47746 281.928 6.53288 281.364 7.82177L280.339 10.1652L279.693 10.1968L279.047 10.2283L278.047 7.9322C277.496 6.6693 277.003 5.58983 276.95 5.53354C276.895 5.47369 276.855 6.4258 276.855 7.82511V10.2191L275.377 10.2179L273.9 10.2168L273.63 9.54396L273.36 8.87115L271.825 8.84117L270.289 8.81119L269.971 9.51516L269.653 10.2191H268.905H268.156L268.267 9.92581C268.328 9.76438 268.914 8.37973 269.568 6.84874L270.757 4.06509L271.832 4.09561L272.908 4.12624L274.156 7.03789ZM289.965 4.71935V5.36639H288.246H286.526V5.90558V6.44478H288.192H289.858V7.09181V7.73884H288.192H286.526V8.38588V9.03291H288.246H289.965V9.62602V10.2191H287.547H285.129V7.14573V4.07232H287.547H289.965V4.71935ZM296.079 4.34192C296.673 4.69304 296.89 5.07209 296.881 5.74005C296.871 6.39517 296.626 6.8826 296.145 7.19868L295.847 7.39516L296.192 7.57417C296.664 7.81907 296.843 8.30715 296.843 9.35297V10.2191H296.158H295.473L295.423 9.34996C295.35 8.09255 295.26 8.02116 293.67 7.97059L292.437 7.93123V9.07518V10.2191H291.738H291.04V7.13516V4.05118L293.377 4.08871C295.481 4.12246 295.751 4.14781 296.079 4.34192ZM299.314 7.14573V10.2191H298.562H297.81V7.14573V4.07232H298.562H299.314V7.14573ZM304.472 4.71935V5.36639H303.555C301.942 5.36639 301.529 5.73886 301.525 7.19965C301.521 8.51064 301.89 8.92669 303.053 8.92334L303.666 8.92162L304.687 6.49869L305.708 4.07577L306.792 4.07405L307.876 4.07232L309.102 6.95226L310.329 9.8321L310.357 6.95226L310.386 4.07232H311.497H312.608L313.886 6.19211L315.164 8.31201L315.194 6.19211L315.223 4.07232H315.973H316.723V7.14961V10.2269L315.676 10.1961L314.63 10.1652L313.285 7.92842C312.546 6.6982 311.904 5.6913 311.86 5.69076C311.816 5.69033 311.779 6.71038 311.779 7.95754V10.2252L310.316 10.1952L308.854 10.1652L308.577 9.48842L308.301 8.81173L306.74 8.84139L305.179 8.87115L304.916 9.54514L304.653 10.2191H303.508C301.478 10.2191 300.601 9.744 300.223 8.44087C299.938 7.45717 300.046 6.09656 300.468 5.34557C300.985 4.42452 301.776 4.09205 303.478 4.07954L304.472 4.07232V4.71935ZM271.286 6.28582C271.039 6.91301 270.837 7.47226 270.837 7.52856C270.837 7.58571 271.265 7.631 271.804 7.631C272.336 7.631 272.772 7.59045 272.772 7.54096C272.772 7.40228 271.918 5.32951 271.821 5.2318C271.773 5.18435 271.533 5.65863 271.286 6.28582ZM306.559 5.5385C306.464 5.77003 306.246 6.29822 306.074 6.71232C305.902 7.12643 305.762 7.50246 305.762 7.54808C305.762 7.59369 306.221 7.631 306.783 7.631C307.344 7.631 307.803 7.61127 307.803 7.58711C307.803 7.51314 306.837 5.22307 306.782 5.16861C306.755 5.14057 306.654 5.30707 306.559 5.5385ZM292.437 6.06734V6.76829H293.572C294.991 6.76829 295.333 6.62023 295.336 6.00317C295.34 5.46937 295.074 5.36639 293.691 5.36639H292.437V6.06734ZM303.505 6.49158C303.505 6.70035 302.909 7.84668 302.801 7.84668C302.616 7.84668 302.508 7.30943 302.597 6.83127C302.665 6.46656 302.693 6.44478 303.087 6.44478C303.317 6.44478 303.505 6.4658 303.505 6.49158ZM279.103 13.9852L278.789 14.3004V17.711C278.789 21.4444 278.814 21.6079 279.409 21.8553C279.628 21.9465 280.629 21.9739 282.912 21.9514L286.108 21.9197L286.822 21.1816L287.536 20.4436L288.186 21.146C288.544 21.5323 288.963 21.8802 289.118 21.919C289.272 21.9578 290.129 21.9738 291.023 21.9546C292.627 21.9201 292.651 21.9161 292.94 21.6259C293.184 21.381 293.239 21.2168 293.276 20.6371L293.32 19.942L294.249 19.8675C294.759 19.8265 295.431 19.7049 295.741 19.5973L296.305 19.4017V20.3401C296.305 21.7853 296.588 22.0215 298.243 21.9575C299.196 21.9207 299.234 21.9093 299.538 21.5675C299.821 21.2497 299.851 21.1418 299.851 20.4621V19.709H300.228H300.604L300.604 20.329C300.604 21.0523 300.855 21.6391 301.248 21.8346C301.454 21.9369 302.948 21.9625 307.642 21.9439L313.767 21.9197L314.377 21.6327C314.856 21.4076 315 21.3773 315.044 21.4922C315.074 21.5728 315.255 21.7192 315.444 21.8175C315.926 22.0678 319.536 21.9937 320.261 21.7185C320.931 21.4648 321.398 21.0773 321.739 20.4947C321.981 20.0804 322.039 19.8335 322.074 19.0695C322.114 18.2033 322.095 18.1058 321.784 17.5155C321.48 16.9381 321.466 16.8666 321.613 16.6558C321.729 16.4895 321.773 16.1312 321.773 15.3632C321.773 14.3252 321.766 14.2929 321.45 13.9756L321.126 13.6509L318.951 13.6873C316.823 13.7231 316.765 13.7302 316.266 14.0126L315.756 14.3014L315.434 13.9778L315.111 13.6541L312.935 13.689C310.983 13.7203 310.713 13.7471 310.319 13.9485L309.879 14.1733L309.587 13.9216C309.298 13.672 309.273 13.67 306.516 13.67H303.736L303.423 13.9349C303.243 14.087 303.067 14.1601 303.011 14.1065C302.958 14.0551 302.651 13.9359 302.33 13.8416C301.874 13.7074 301.225 13.67 299.354 13.67C296.995 13.67 296.958 13.6735 296.667 13.9245L296.372 14.1791L295.882 13.9514C295.425 13.7392 295.18 13.7216 292.243 13.6896L289.095 13.6553L288.33 14.4031L287.566 15.1508L286.857 14.4104L286.148 13.67H282.783H279.417L279.103 13.9852ZM286.654 15.7439L287.589 16.7434L288.517 15.7459L289.445 14.7484H292.104C295.111 14.7484 295.66 14.8374 296.133 15.4021C296.543 15.8906 296.681 16.5128 296.536 17.2197C296.301 18.3668 295.686 18.7036 293.633 18.8079L292.222 18.8795V19.8873V20.8952L290.798 20.8937L289.374 20.8923L288.465 19.8534L287.556 18.8144L286.584 19.8575L285.613 20.9005L282.738 20.8979L279.864 20.8952V17.8218V14.7484L282.792 14.7464L285.72 14.7444L286.654 15.7439ZM302.049 14.868C302.283 14.933 302.634 15.1463 302.828 15.3418C303.148 15.6631 303.183 15.7582 303.182 16.3282C303.182 17.0297 302.953 17.5235 302.486 17.8306L302.209 18.0129L302.575 18.2624C303.046 18.5839 303.088 18.7019 303.156 19.8977L303.212 20.8952H302.445H301.678V20.0276C301.678 19.2502 301.651 19.1325 301.414 18.8953C301.166 18.6462 301.081 18.6306 299.964 18.6306H298.777V19.7629V20.8952H298.078H297.38V17.8218V14.7484L299.502 14.749C300.711 14.7493 301.807 14.8006 302.049 14.868ZM308.985 15.3415V15.9346H307.266H305.547V16.5277V17.1208H307.212H308.878V17.7139V18.3071H307.212H305.547V18.9541V19.6011H307.266H308.985V20.2482V20.8952H306.568H304.15V17.8218V14.7484H306.568H308.985V15.3415ZM314.681 15.3954V16.0424H313.09C311.374 16.0424 311.242 16.0821 311.242 16.5994C311.242 17.0079 311.434 17.0797 312.744 17.1621C314.482 17.2715 315.003 17.6849 315.003 18.9541C315.003 19.7352 314.738 20.2273 314.133 20.5692C313.691 20.8188 313.539 20.8389 311.806 20.8779L309.953 20.9197V20.2603V19.6011H311.529C313.237 19.6011 313.499 19.5212 313.499 18.9989C313.499 18.5554 313.262 18.451 312.113 18.3875C310.328 18.2887 309.791 17.8717 309.791 16.5816C309.791 15.7003 309.987 15.3601 310.707 14.991C311.14 14.7688 311.327 14.7484 312.931 14.7484H314.681V15.3954ZM320.699 15.3954V16.0424H319.108C317.429 16.0424 317.26 16.0882 317.26 16.5416C317.26 16.9831 317.496 17.0828 318.722 17.158C320.51 17.2678 321.02 17.6671 321.021 18.9558C321.021 19.7351 320.755 20.2276 320.151 20.5692C319.708 20.8188 319.557 20.8389 317.824 20.8779L315.97 20.9197V20.2603V19.6011H317.575C319.311 19.6011 319.517 19.5384 319.517 19.008C319.517 18.5548 319.285 18.4513 318.131 18.3875C316.345 18.2887 315.809 17.8717 315.809 16.5816C315.809 15.7003 316.005 15.3601 316.725 14.991C317.158 14.7688 317.345 14.7484 318.948 14.7484H320.699V15.3954ZM289.57 16.6126L288.477 17.8114L288.999 18.4097C289.286 18.7387 289.812 19.3234 290.167 19.709L290.815 20.4099L290.82 17.9027C290.823 16.5236 290.788 15.3995 290.744 15.4046C290.7 15.4096 290.172 15.9531 289.57 16.6126ZM281.261 16.5277V17.1208H282.873H284.485V17.711V18.3013L282.9 18.3311L281.315 18.361L281.282 18.981L281.25 19.6011H283.119H284.987L285.807 18.697L286.627 17.7929L285.811 16.8637L284.995 15.9346H283.128H281.261V16.5277ZM292.222 16.7434V17.5522H293.357C293.982 17.5522 294.588 17.5007 294.706 17.4378C295.204 17.1703 295.155 16.2978 294.629 16.0573C294.482 15.9898 293.88 15.9346 293.291 15.9346H292.222V16.7434ZM298.777 16.6895V17.4629L300.022 17.4267C301.18 17.393 301.282 17.3724 301.473 17.1358C301.586 16.9958 301.678 16.7949 301.678 16.6895C301.678 16.584 301.586 16.3831 301.473 16.2431C301.282 16.0065 301.18 15.9859 300.022 15.9523L298.777 15.916V16.6895Z" fill="#F4F4F4" fill-opacity="0.35"></path><path d="M337.266 3.00037H339.216V14.5255H337.266V3.00037Z" fill="#F4F4F4" fill-opacity="0.35"></path><path d="M340.457 3.00037H341.344V14.5255H340.457V3.00037Z" fill="#F4F4F4" fill-opacity="0.35"></path><path d="M342.94 3.00037H344.535V14.5255H342.94V3.00037Z" fill="#F4F4F4" fill-opacity="0.35"></path><path d="M345.954 3.00037H347.018V14.5255H345.954V3.00037Z" fill="#F4F4F4" fill-opacity="0.35"></path><path d="M348.436 3.00037H350.918V14.5255H348.436V3.00037Z" fill="#F4F4F4" fill-opacity="0.35"></path><path d="M362.266 3.00037H364.394V14.5255H362.266V3.00037Z" fill="#F4F4F4" fill-opacity="0.35"></path><path d="M352.692 3.00037H354.287V14.5255H352.692V3.00037Z" fill="#F4F4F4" fill-opacity="0.35"></path><path d="M365.812 3.00037H367.231V14.5255H365.812V3.00037Z" fill="#F4F4F4" fill-opacity="0.35"></path><path d="M355.883 3.00037H357.124V14.5255H355.883V3.00037Z" fill="#F4F4F4" fill-opacity="0.35"></path><path d="M368.649 3.00037H369.713V14.5255H368.649V3.00037Z" fill="#F4F4F4" fill-opacity="0.35"></path><path d="M359.075 3.00037H360.316V14.5255H359.075V3.00037Z" fill="#F4F4F4" fill-opacity="0.35"></path><path d="M371.309 3.00037H373.259V14.5255H371.309V3.00037Z" fill="#F4F4F4" fill-opacity="0.35"></path><path d="M341.091 19.118C341.389 19.2147 341.626 19.3775 341.801 19.6066C341.975 19.8305 342.063 20.1104 342.063 20.4463C342.063 20.9095 341.883 21.2683 341.523 21.5227C341.163 21.7721 340.639 21.8968 339.95 21.8968H337.266V16.5529H339.795C340.433 16.5529 340.924 16.6776 341.268 16.927C341.613 17.1713 341.785 17.5097 341.785 17.9423C341.785 18.207 341.724 18.4411 341.6 18.6447C341.477 18.8482 341.307 19.006 341.091 19.118ZM338.268 17.3316V18.805H339.687C340.037 18.805 340.304 18.7439 340.489 18.6218C340.68 18.4945 340.775 18.3113 340.775 18.0721C340.775 17.8278 340.68 17.6446 340.489 17.5224C340.304 17.3952 340.037 17.3316 339.687 17.3316H338.268ZM339.888 21.1181C340.664 21.1181 341.053 20.8611 341.053 20.3471C341.053 19.8331 340.664 19.576 339.888 19.576H338.268V21.1181H339.888Z" fill="#F4F4F4" fill-opacity="0.35"></path><path d="M346.426 21.9732C345.876 21.9732 345.38 21.8561 344.938 21.622C344.495 21.3828 344.148 21.0545 343.896 20.6372C343.645 20.2148 343.519 19.744 343.519 19.2249C343.519 18.7057 343.645 18.2375 343.896 17.8202C344.148 17.3978 344.495 17.0695 344.938 16.8354C345.38 16.5962 345.876 16.4766 346.426 16.4766C346.976 16.4766 347.473 16.5962 347.915 16.8354C348.357 17.0695 348.704 17.3952 348.956 17.8125C349.208 18.2299 349.334 18.7007 349.334 19.2249C349.334 19.7491 349.208 20.2198 348.956 20.6372C348.704 21.0545 348.357 21.3828 347.915 21.622C347.473 21.8561 346.976 21.9732 346.426 21.9732ZM346.426 21.1029C346.786 21.1029 347.11 21.024 347.398 20.8662C347.686 20.7033 347.912 20.4794 348.077 20.1944C348.241 19.9043 348.324 19.5811 348.324 19.2249C348.324 18.8686 348.241 18.548 348.077 18.263C347.912 17.9729 347.686 17.7489 347.398 17.5912C347.11 17.4283 346.786 17.3469 346.426 17.3469C346.066 17.3469 345.742 17.4283 345.454 17.5912C345.166 17.7489 344.94 17.9729 344.776 18.263C344.611 18.548 344.529 18.8686 344.529 19.2249C344.529 19.5811 344.611 19.9043 344.776 20.1944C344.94 20.4794 345.166 20.7033 345.454 20.8662C345.742 21.024 346.066 21.1029 346.426 21.1029Z" fill="#F4F4F4" fill-opacity="0.35"></path><path d="M351.168 16.5529H352.171V21.0571H354.993V21.8968H351.168V16.5529Z" fill="#F4F4F4" fill-opacity="0.35"></path><path d="M360.605 21.0647V21.8968H356.556V16.5529H360.497V17.385H357.559V18.7744H360.166V19.5913H357.559V21.0647H360.605Z" fill="#F4F4F4" fill-opacity="0.35"></path><path d="M363.589 17.3927H361.8V16.5529H366.381V17.3927H364.592V21.8968H363.589V17.3927Z" fill="#F4F4F4" fill-opacity="0.35"></path><path d="M370.352 21.9732C369.802 21.9732 369.306 21.8561 368.863 21.622C368.421 21.3828 368.074 21.0545 367.822 20.6372C367.57 20.2148 367.444 19.744 367.444 19.2249C367.444 18.7057 367.57 18.2375 367.822 17.8202C368.074 17.3978 368.421 17.0695 368.863 16.8354C369.306 16.5962 369.802 16.4766 370.352 16.4766C370.902 16.4766 371.398 16.5962 371.84 16.8354C372.283 17.0695 372.63 17.3952 372.882 17.8125C373.134 18.2299 373.259 18.7007 373.259 19.2249C373.259 19.7491 373.134 20.2198 372.882 20.6372C372.63 21.0545 372.283 21.3828 371.84 21.622C371.398 21.8561 370.902 21.9732 370.352 21.9732ZM370.352 21.1029C370.712 21.1029 371.036 21.024 371.324 20.8662C371.612 20.7033 371.838 20.4794 372.002 20.1944C372.167 19.9043 372.249 19.5811 372.249 19.2249C372.249 18.8686 372.167 18.548 372.002 18.263C371.838 17.9729 371.612 17.7489 371.324 17.5912C371.036 17.4283 370.712 17.3469 370.352 17.3469C369.992 17.3469 369.668 17.4283 369.38 17.5912C369.092 17.7489 368.866 17.9729 368.701 18.263C368.537 18.548 368.455 18.8686 368.455 19.2249C368.455 19.5811 368.537 19.9043 368.701 20.1944C368.866 20.4794 369.092 20.7033 369.38 20.8662C369.668 21.024 369.992 21.1029 370.352 21.1029Z" fill="#F4F4F4" fill-opacity="0.35"></path><path fill-rule="evenodd" clip-rule="evenodd" d="M397.521 3.01889L395.338 3.03087L395.02 3.09138C394.114 3.2639 393.554 3.47765 393.011 3.85815C392.795 4.01001 392.445 4.3498 392.278 4.57097C392.089 4.82087 391.882 5.25525 391.789 5.59786C391.699 5.93079 391.456 7.0895 390.718 10.7028C390.598 11.2901 390.421 12.1571 390.324 12.6293C390.227 13.1016 390.012 14.1518 389.847 14.9632C389.682 15.7745 389.502 16.6514 389.449 16.9117C388.739 20.3576 388.424 21.9214 388.435 21.9487C388.444 21.9726 391.636 21.9752 406.678 21.964C424.58 21.9506 424.916 21.9496 425.248 21.9074C426.151 21.7928 426.928 21.5282 427.463 21.1529C427.701 20.9862 428.093 20.5968 428.236 20.386C428.481 20.0237 428.65 19.6231 428.745 19.1795C428.809 18.886 430.062 12.7979 430.28 11.7266C430.351 11.3754 430.515 10.5779 430.643 9.95422C430.772 9.33058 431.035 8.05247 431.227 7.11398C431.42 6.17549 431.687 4.87826 431.822 4.23126C431.956 3.58428 432.066 3.04181 432.066 3.02581C432.066 3.00172 429.284 2.9976 415.885 3.00181C406.986 3.00461 398.722 3.01229 397.521 3.01889ZM428.295 8.6718C428.295 8.68091 428.25 8.91128 428.195 9.1837C427.981 10.241 427.503 12.8883 427.414 13.51C427.335 14.0563 427.236 14.9152 427.236 15.0568L427.236 15.1944H426.814H426.392L426.407 15.0457C426.415 14.964 426.435 14.8055 426.45 14.6935C426.466 14.5815 426.474 14.4903 426.466 14.4909C426.459 14.4915 426.399 14.5709 426.332 14.6672C426.177 14.8906 426.025 15.0215 425.796 15.129C425.308 15.3572 424.512 15.3591 424.029 15.1332C423.712 14.9853 423.542 14.7964 423.424 14.4605C423.272 14.0322 423.285 13.2976 423.454 12.6847C423.665 11.9211 424.021 11.3299 424.47 10.9987C424.814 10.744 425.233 10.5901 425.706 10.5438C426.058 10.5094 426.528 10.546 426.83 10.6314L427.052 10.6942L427.112 10.3297C427.204 9.7711 427.317 9.06201 427.346 8.84785L427.373 8.6552H427.834C428.087 8.6552 428.295 8.66266 428.295 8.6718ZM400.145 8.74877C400.186 8.77603 400.242 8.8368 400.269 8.88385C400.312 8.96042 400.315 8.98975 400.303 9.16318C400.273 9.59047 400.054 9.82212 399.682 9.82212C399.496 9.82212 399.362 9.76243 399.312 9.65723C399.25 9.52874 399.26 9.23806 399.331 9.06736C399.438 8.8122 399.605 8.70421 399.897 8.70106C400.04 8.69954 400.081 8.7076 400.145 8.74877ZM394.459 8.82583C394.439 8.89345 394.294 9.67079 394.258 9.89918C394.239 10.0203 394.179 10.3472 394.126 10.6258C394.072 10.9043 394.019 11.1834 394.008 11.246L393.988 11.3598L394.123 11.3764C394.284 11.3964 396.795 11.3958 396.886 11.3758L396.95 11.3618L397.011 10.9607C397.045 10.7402 397.137 10.1931 397.214 9.74506C397.292 9.297 397.361 8.89823 397.368 8.85886L397.38 8.7873H397.916H398.453L398.413 8.95794C398.391 9.05177 398.317 9.43571 398.249 9.81111C398.181 10.1865 398.062 10.8355 397.984 11.2533C397.841 12.0214 397.515 13.9172 397.398 14.6659C397.362 14.89 397.328 15.1005 397.321 15.1338L397.308 15.1944H396.781C396.311 15.1944 396.253 15.1905 396.253 15.159C396.253 15.1164 396.338 14.6483 396.616 13.1591C396.77 12.3315 396.819 12.03 396.801 12.0087C396.766 11.9673 393.932 11.966 393.899 12.0073C393.887 12.0225 393.851 12.1736 393.819 12.3431C393.761 12.6539 393.342 15.1413 393.342 15.1758C393.342 15.186 393.104 15.1944 392.813 15.1944C392.337 15.1944 392.284 15.1907 392.284 15.1582C392.284 15.1383 392.378 14.6405 392.493 14.0518C392.8 12.4757 392.882 12.0197 393.101 10.6527C393.353 9.07676 393.386 8.87288 393.4 8.82583C393.41 8.79052 393.455 8.7873 393.941 8.7873C394.434 8.7873 394.469 8.7899 394.459 8.82583ZM403.641 10.5891C404.171 10.7231 404.503 11.0628 404.636 11.6076C404.711 11.9124 404.707 12.3795 404.627 12.8173C404.532 13.3377 404.31 13.933 404.076 14.2949C403.832 14.6726 403.489 14.9701 403.107 15.1364C402.922 15.2172 402.547 15.3001 402.295 15.3161C401.712 15.3534 401.337 15.1961 401.123 14.8243C401.086 14.76 401.05 14.7129 401.043 14.7197C401.029 14.7335 400.807 16.1285 400.716 16.7686C400.684 16.9987 400.654 17.1993 400.65 17.2145C400.645 17.2354 400.531 17.242 400.179 17.242C399.924 17.242 399.715 17.2378 399.715 17.2328C399.715 17.2278 399.765 16.9726 399.825 16.6659C400.125 15.1409 400.468 13.1905 400.874 10.7083L400.886 10.6368H401.282C401.526 10.6368 401.678 10.645 401.678 10.6583C401.678 10.6702 401.662 10.7598 401.642 10.8574C401.622 10.955 401.612 11.0404 401.618 11.047C401.625 11.0537 401.697 11.0091 401.777 10.948C402.054 10.739 402.451 10.5843 402.825 10.54C402.998 10.5193 403.479 10.5483 403.641 10.5891ZM408.282 10.593C408.766 10.6979 409.097 10.9772 409.187 11.356C409.247 11.6045 409.214 12.1727 409.114 12.6183L409.097 12.6954L407.549 12.7064C406.56 12.7134 405.995 12.7254 405.982 12.7394C405.947 12.779 405.889 13.2622 405.89 13.5187C405.89 14.0681 406.091 14.4124 406.508 14.58L406.695 14.6549L407.12 14.6618C407.482 14.6676 407.579 14.6617 407.781 14.6219C408.03 14.5728 408.358 14.4737 408.553 14.3887C408.63 14.355 408.668 14.347 408.668 14.3647C408.668 14.3793 408.644 14.51 408.615 14.6552C408.586 14.8004 408.556 14.9551 408.549 14.9989L408.535 15.0787L408.31 15.1259C407.431 15.3097 406.714 15.3479 406.181 15.2393C405.899 15.182 405.754 15.1284 405.589 15.0208C405.298 14.8315 405.127 14.5877 405.017 14.2067C404.961 14.0112 404.959 13.9886 404.969 13.5699C404.977 13.207 404.989 13.0888 405.039 12.8495C405.192 12.1266 405.442 11.5752 405.777 11.2252C406.145 10.8406 406.573 10.6425 407.239 10.5488C407.476 10.5153 408.033 10.5389 408.282 10.593ZM412.416 10.5717C412.508 10.5965 412.596 10.6247 412.612 10.6343C412.634 10.6482 412.628 10.7162 412.58 10.969C412.547 11.1435 412.519 11.2887 412.517 11.2917C412.515 11.2947 412.464 11.2833 412.404 11.2665C412.345 11.2496 412.18 11.2302 412.038 11.2234L411.78 11.2109L411.606 11.2926C411.306 11.4335 411.053 11.7114 410.872 12.0964C410.753 12.3523 410.602 13.0498 410.424 14.1816C410.381 14.454 410.333 14.7934 410.319 14.9357L410.292 15.1944H409.833C409.509 15.1944 409.374 15.1871 409.374 15.1697C409.374 15.1562 409.449 14.7673 409.54 14.3055C409.631 13.8438 409.745 13.2431 409.794 12.9706C409.886 12.4509 410.168 10.7127 410.168 10.6647C410.168 10.6431 410.262 10.6368 410.577 10.6368C410.957 10.6368 410.986 10.6396 410.976 10.6753C410.952 10.7588 410.848 11.367 410.856 11.3754C410.861 11.3803 410.922 11.3078 410.99 11.2142C411.205 10.9226 411.365 10.7763 411.596 10.6607C411.869 10.5243 412.133 10.4956 412.416 10.5717ZM415.56 10.5599C415.79 10.5776 415.989 10.5924 416.001 10.5928C416.079 10.5951 416.081 10.6249 416.022 10.9801C415.99 11.1727 415.961 11.3332 415.958 11.3366C415.954 11.3401 415.903 11.3238 415.843 11.3005C415.784 11.2771 415.602 11.2305 415.438 11.1968C415.194 11.1466 415.081 11.1352 414.81 11.1339C414.515 11.1323 414.456 11.1385 414.266 11.1916C413.877 11.3003 413.656 11.4958 413.448 11.9158C413.067 12.6859 412.966 13.7644 413.232 14.2313C413.397 14.5226 413.636 14.6496 414.071 14.6769C414.435 14.6997 414.91 14.5978 415.399 14.3916C415.431 14.3779 415.435 14.3867 415.423 14.4604C415.393 14.6639 415.31 15.0456 415.292 15.0631C415.258 15.0971 414.862 15.1928 414.545 15.2437C414.108 15.3138 413.534 15.3124 413.233 15.2405C412.746 15.1238 412.443 14.8654 412.263 14.4136C412.178 14.1983 412.154 14.0275 412.153 13.6311C412.153 13.1008 412.209 12.7678 412.388 12.244C412.586 11.6615 412.917 11.1843 413.308 10.9179C413.81 10.5754 414.446 10.4742 415.56 10.5599ZM419.43 10.6004C419.828 10.6884 420.056 10.835 420.183 11.0851L420.249 11.2141L420.227 11.5694C420.21 11.8359 420.172 12.1064 420.072 12.6514C419.868 13.7704 419.783 14.3497 419.755 14.7925L419.73 15.1944H419.337H418.945V15.0548C418.945 14.978 418.955 14.835 418.969 14.7372C419.005 14.4662 418.997 14.4616 418.833 14.6579C418.589 14.9485 418.305 15.1332 417.955 15.2291C417.783 15.2761 417.701 15.2844 417.374 15.2886C417.018 15.2931 416.979 15.2895 416.778 15.2334C416.447 15.1409 416.266 15.0083 416.109 14.7423C415.995 14.5474 415.955 14.0603 416.022 13.6752C416.073 13.3859 416.228 13.087 416.443 12.8622C416.709 12.5844 416.952 12.4524 417.462 12.3093L417.695 12.244H418.484C419.216 12.244 419.273 12.2413 419.284 12.2055C419.325 12.0755 419.364 11.8231 419.364 11.6918C419.364 11.5537 419.356 11.5275 419.286 11.4226C419.19 11.2782 419.051 11.2046 418.775 11.1524C418.414 11.084 417.7 11.1535 417.071 11.3182C416.981 11.3419 416.904 11.3593 416.902 11.3568C416.898 11.353 417.037 10.7476 417.061 10.6643C417.066 10.6459 417.117 10.6368 417.214 10.6368C417.293 10.6368 417.485 10.6216 417.639 10.603C418.388 10.5128 419.029 10.5119 419.43 10.6004ZM423.648 10.5838C423.784 10.6289 423.818 10.6486 423.809 10.6774C423.786 10.7555 423.708 11.1924 423.708 11.2434C423.708 11.3066 423.699 11.3079 423.576 11.2643C423.51 11.2412 423.393 11.2312 423.186 11.2312C422.917 11.2312 422.881 11.236 422.786 11.2844C422.285 11.5412 422.03 11.9408 421.846 12.7612C421.736 13.2508 421.481 14.8582 421.481 15.0612V15.1944H421.009C420.57 15.1944 420.537 15.1916 420.545 15.1558C420.571 15.0378 420.871 13.4985 420.927 13.1908C421.014 12.7169 421.198 11.6095 421.271 11.1211C421.302 10.9092 421.333 10.7136 421.339 10.6863C421.349 10.6372 421.352 10.6368 421.746 10.6368C422.116 10.6368 422.142 10.6394 422.142 10.6774C422.142 10.6997 422.117 10.8537 422.086 11.0196C422.054 11.1855 422.032 11.3317 422.037 11.3445C422.041 11.3573 422.088 11.3049 422.142 11.228C422.549 10.6433 423.108 10.4042 423.648 10.5838ZM399.977 10.8184C399.798 11.6454 399.323 14.3278 399.246 14.9522L399.217 15.1834L398.75 15.1893C398.492 15.1926 398.282 15.192 398.282 15.188C398.282 15.1841 398.332 14.9337 398.392 14.6317C398.639 13.408 398.959 11.582 399.057 10.8404L399.084 10.6368H399.55H400.017L399.977 10.8184ZM407.162 11.124C406.909 11.1564 406.698 11.2585 406.511 11.4387C406.338 11.6041 406.253 11.7458 406.147 12.0384L406.091 12.1961L406.293 12.2103C406.405 12.2181 406.908 12.2214 407.411 12.2177L408.327 12.211L408.35 11.9908C408.396 11.5608 408.296 11.3284 408.009 11.197C407.809 11.1058 407.507 11.0797 407.162 11.124ZM402.472 11.137C402.366 11.1491 402.14 11.2196 402.034 11.2734C401.986 11.2978 401.869 11.3767 401.773 11.4487L401.599 11.5797L401.415 12.5889C401.202 13.7541 401.19 13.9057 401.28 14.1816C401.348 14.3907 401.476 14.5358 401.667 14.6216C401.838 14.6984 401.931 14.7151 402.174 14.7118C402.335 14.7096 402.41 14.6961 402.571 14.6397C402.68 14.6015 402.816 14.537 402.873 14.4963C403.219 14.2476 403.475 13.7738 403.648 13.0587C403.693 12.8734 403.707 12.7438 403.719 12.4063C403.734 12.009 403.732 11.9758 403.685 11.8231C403.619 11.6043 403.565 11.502 403.456 11.39C403.262 11.1887 402.879 11.0905 402.472 11.137ZM425.737 11.1432C425.559 11.1619 425.339 11.2385 425.207 11.3269C425.083 11.4108 424.881 11.6139 424.788 11.7497C424.578 12.0538 424.377 12.6029 424.315 13.0395C424.273 13.33 424.272 13.8851 424.313 14.0554C424.412 14.4681 424.731 14.6947 425.207 14.6899C425.704 14.685 426.133 14.4198 426.356 13.9799C426.425 13.843 426.524 13.5209 426.595 13.1986C426.666 12.8801 426.949 11.3118 426.938 11.3008C426.933 11.2953 426.802 11.2527 426.647 11.206C426.387 11.1279 426.346 11.1214 426.123 11.1246C425.989 11.1265 425.815 11.1349 425.737 11.1432ZM417.82 12.8037C417.51 12.8851 417.379 12.9557 417.208 13.1326C417.08 13.2652 417.042 13.3227 416.969 13.499C416.885 13.7023 416.883 13.7153 416.884 13.9614C416.886 14.1748 416.893 14.2288 416.933 14.3052C417.036 14.5049 417.172 14.6058 417.424 14.6717C417.66 14.7332 418.078 14.6599 418.338 14.5113C418.476 14.4325 418.719 14.184 418.802 14.0375C418.9 13.8637 419.062 13.3771 419.125 13.0624C419.176 12.8161 419.176 12.8126 419.133 12.7817C419.099 12.7566 418.984 12.7508 418.549 12.7524C418.063 12.7542 417.988 12.7595 417.82 12.8037Z" fill="#F4F4F4" fill-opacity="0.35"></path><path fill-rule="evenodd" clip-rule="evenodd" d="M456.083 3.0047C456.038 3.00991 455.884 3.02545 455.742 3.03922C455.356 3.07654 454.821 3.17161 454.409 3.27604C454.084 3.35845 453.752 3.45606 453.729 3.47594C453.724 3.47985 453.999 4.31734 454.339 5.33702C454.864 6.91443 454.962 7.18872 454.995 7.17575C455.108 7.13159 455.682 6.99775 455.918 6.96074C456.295 6.90172 457.137 6.90146 457.532 6.96026C459.12 7.19629 460.505 8.08121 461.395 9.42781C461.716 9.9127 462.034 10.6501 462.156 11.1903C462.177 11.2843 462.207 11.3615 462.222 11.3617C462.273 11.3625 465.999 10.6 466.016 10.5854C466.057 10.5497 465.822 9.68767 465.629 9.17146C464.797 6.93393 463.11 5.05599 460.972 3.98481C460.228 3.61199 459.342 3.31209 458.524 3.15643C457.934 3.04401 457.584 3.0118 456.862 3.00336C456.479 2.9989 456.129 2.99949 456.083 3.0047ZM450.153 5.63678C448.488 7.22668 447.459 9.39567 447.265 11.7267C447.235 12.0902 447.235 12.8723 447.265 13.2357C447.438 15.313 448.238 17.1925 449.623 18.7736C449.858 19.0426 450.412 19.5918 450.445 19.5888C450.459 19.5874 452.956 16.771 453.005 16.7011C453.022 16.6771 452.965 16.6046 452.781 16.4142C452.041 15.6521 451.582 14.8468 451.332 13.8724C451.198 13.3489 451.168 13.0922 451.169 12.4694C451.169 12.0019 451.178 11.8659 451.224 11.5985C451.424 10.4262 451.925 9.43542 452.752 8.57768C452.995 8.32589 453.02 8.29158 452.991 8.25551C452.921 8.16765 450.445 5.37229 450.438 5.37229C450.433 5.37229 450.305 5.49132 450.153 5.63678ZM481.014 11.2964C481.021 16.7821 481.023 17.0881 481.064 17.2559C481.214 17.8787 481.563 18.3699 482.069 18.6714C482.208 18.7541 484.211 19.6042 484.225 19.586C484.238 19.568 485.178 17.3589 485.185 17.3291C485.191 17.3059 484.944 17.1949 484.344 16.9508L483.495 16.6054L483.489 11.0596L483.484 5.51377H482.245H481.007L481.014 11.2964ZM473.792 7.98197C471.767 8.13066 470.078 9.24894 469.163 11.0471C468.83 11.7035 468.651 12.2673 468.53 13.0471C468.486 13.3329 468.492 14.169 468.541 14.4986C468.593 14.8476 468.694 15.2589 468.816 15.6172C468.916 15.911 469.32 16.7562 469.369 16.775C469.395 16.7849 479.774 12.2743 479.809 12.238C479.831 12.215 479.641 11.7369 479.462 11.364C478.937 10.2719 478.24 9.45768 477.368 8.91662C476.272 8.2366 474.968 7.89567 473.792 7.98197ZM490.428 8.01555C490.064 8.05938 489.318 8.23063 489.267 8.28222C489.258 8.2913 489.437 8.85782 489.665 9.54115C490.024 10.6202 490.085 10.783 490.124 10.7795C490.148 10.7773 490.301 10.7471 490.463 10.7124C490.737 10.6538 490.788 10.6501 491.171 10.6609C491.511 10.6705 491.626 10.6834 491.826 10.7339C492.736 10.9636 493.469 11.5513 493.888 12.3873C493.994 12.5983 494.142 13.0171 494.142 13.1063C494.142 13.1353 494.158 13.1532 494.183 13.1531C494.246 13.1528 496.735 12.6428 496.751 12.6269C496.772 12.6062 496.671 12.2114 496.566 11.9072C496.067 10.4512 495.014 9.25521 493.635 8.57929C493.093 8.31348 492.549 8.14044 491.961 8.04665C491.678 8.00156 490.708 7.98188 490.428 8.01555ZM486.936 9.7393C485.288 11.4343 484.831 13.9017 485.76 16.0798C486.037 16.7297 486.477 17.372 486.997 17.888C487.192 18.0807 487.247 18.1239 487.269 18.0997C487.284 18.083 487.661 17.6609 488.106 17.1616C488.55 16.6623 488.935 16.2304 488.961 16.2018L489.008 16.1498L488.814 15.9424C488.382 15.4816 488.119 14.967 487.996 14.341C487.935 14.0315 487.94 13.4766 488.008 13.1595C488.136 12.5553 488.438 11.9924 488.861 11.5675L489.02 11.4083L488.148 10.4357C487.668 9.90082 487.263 9.46011 487.247 9.45636C487.231 9.45261 487.091 9.57994 486.936 9.7393ZM474.841 10.499C475.134 10.5745 475.491 10.747 475.751 10.9388C475.953 11.0883 476.339 11.4539 476.339 11.4965C476.339 11.5094 475.965 11.6808 475.508 11.8774C475.05 12.074 473.881 12.5777 472.908 12.9968L471.139 13.7587L471.119 13.6858C471.087 13.5726 471.119 13.0497 471.173 12.7822C471.293 12.1993 471.52 11.7707 471.929 11.3588C472.166 11.1194 472.394 10.9534 472.683 10.8075C473.037 10.6293 473.464 10.492 473.821 10.4417C474.089 10.4039 474.578 10.4313 474.841 10.499ZM462.143 13.8193C461.961 14.5622 461.569 15.3597 461.091 15.9591C460.335 16.9065 459.253 17.6019 458.088 17.89C457.148 18.1223 456.174 18.1109 455.246 17.8566C455.091 17.8139 454.961 17.7812 454.958 17.7838C454.947 17.795 453.725 21.4397 453.725 21.4637C453.725 21.5166 454.514 21.7347 455.046 21.829C455.976 21.9938 457.13 22.0163 458.041 21.8872C460.975 21.4713 463.521 19.7381 464.999 17.1498C465.306 16.613 465.613 15.902 465.798 15.2989C465.902 14.9598 466.042 14.4031 466.027 14.3878C466.018 14.3792 462.245 13.6012 462.212 13.6012C462.203 13.6012 462.172 13.6994 462.143 13.8193ZM494.12 14.562C493.997 15.121 493.597 15.7642 493.129 16.156C492.59 16.6072 492.044 16.8359 491.341 16.9048C491.021 16.9361 490.642 16.9043 490.3 16.8177C490.178 16.7867 490.076 16.7638 490.073 16.7669C490.071 16.77 489.886 17.3243 489.661 17.9986C489.437 18.673 489.249 19.2369 489.244 19.2517C489.232 19.2831 489.362 19.3287 489.697 19.411C490.73 19.6649 491.871 19.6244 492.869 19.2986C493.986 18.9334 495.015 18.1984 495.707 17.271C496.159 16.6647 496.452 16.0804 496.649 15.3925C496.767 14.9784 496.771 14.952 496.719 14.9362C496.639 14.9115 494.233 14.4265 494.191 14.4265C494.159 14.4265 494.142 14.4592 494.12 14.562ZM476.775 15.7503C476.349 16.3277 475.677 16.7497 474.841 16.9642C474.601 17.0262 474.549 17.0309 474.122 17.0312C473.713 17.0315 473.641 17.0256 473.462 16.9764C473.212 16.9077 472.788 16.7031 472.602 16.5615C472.524 16.5025 472.455 16.4542 472.447 16.4542C472.439 16.4542 472.119 16.9256 471.734 17.5017L471.035 18.5493L471.229 18.6739C471.841 19.0679 472.604 19.3642 473.356 19.4993C473.624 19.5475 473.736 19.5543 474.252 19.5539C474.761 19.5535 474.883 19.5461 475.144 19.4995C476.563 19.2462 477.885 18.4966 478.701 17.483C478.944 17.1817 479.064 17 479.037 16.9757C479.009 16.9507 477.107 15.6784 476.998 15.6119L476.915 15.5609L476.775 15.7503Z" fill="#F4F4F4" fill-opacity="0.35"></path></svg>